<svg width="108" height="108" viewBox="0 0 108 108" fill="none" xmlns="http://www.w3.org/2000/svg">
<path d="M93.3302 7.68001L86.5302 11.23C79.717 6.25481 71.8225 2.96368 63.4929 1.62597C55.1632 0.288274 46.6352 0.942024 38.6068 3.53374C30.5784 6.12545 23.2777 10.5814 17.3025 16.537C11.3272 22.4926 6.84718 29.7784 4.22899 37.7983C1.6108 45.8181 0.928905 54.3439 2.23911 62.6779C3.54931 71.0119 6.81437 78.9173 11.7671 85.7468C16.7198 92.5764 23.2193 98.1362 30.7337 101.971C38.2481 105.806 46.5638 107.807 55.0002 107.81C55.8839 107.845 56.7655 107.7 57.592 107.386C58.4186 107.072 59.1733 106.593 59.8107 105.98C60.4481 105.367 60.9552 104.632 61.3016 103.818C61.648 103.005 61.8265 102.129 61.8265 101.245C61.8265 100.361 61.648 99.4854 61.3016 98.6717C60.9552 97.858 60.4481 97.1226 59.8107 96.5096C59.1733 95.8966 58.4186 95.4186 57.592 95.1042C56.7655 94.7898 55.8839 94.6455 55.0002 94.68C48.9241 94.676 42.9276 93.2981 37.4592 90.6494C31.9908 88.0007 27.1921 84.1498 23.4221 79.3847C19.6521 74.6196 17.0084 69.0637 15.6887 63.1326C14.3691 57.2016 14.4077 51.0489 15.8016 45.1348C17.1955 39.2208 19.9086 33.6985 23.7381 28.981C27.5675 24.2636 32.4141 20.4731 37.9153 17.8932C43.4165 15.3133 49.4298 14.0107 55.5055 14.0829C61.5812 14.155 67.5619 15.6001 73.0002 18.31L68.4502 20.69C67.3574 21.2579 66.4338 22.104 65.7725 23.143C65.1113 24.1819 64.7359 25.3769 64.6841 26.6074C64.6324 27.8378 64.9062 29.0602 65.4779 30.151C66.0496 31.2418 66.8989 32.1624 67.9402 32.82L91.6502 47.88C92.6882 48.5424 93.8825 48.9193 95.1126 48.9726C96.3428 49.0259 97.5652 48.7539 98.6566 48.1838C99.748 47.6138 100.67 46.7659 101.329 45.7259C101.988 44.6858 102.361 43.4903 102.41 42.26L103.6 14.19C103.655 12.9594 103.385 11.736 102.816 10.6434C102.247 9.55075 101.4 8.6276 100.36 7.96716C99.3203 7.30673 98.1246 6.93241 96.8938 6.88199C95.663 6.83157 94.4406 7.10683 93.3502 7.68001H93.3302Z" fill="#B5D69E"/>
<path d="M89.4298 13.21L99.9298 7.72998C98.9145 7.18725 97.781 6.90332 96.6298 6.90332C95.4785 6.90332 94.3451 7.18725 93.3298 7.72998L86.5298 11.28C87.5098 11.86 88.4798 12.52 89.4298 13.21Z" fill="#9ACDA3"/>
<path d="M23.9398 92.16C16.6707 84.8886 11.6539 75.6743 9.49146 65.6225C7.329 55.5708 8.1127 45.1086 11.7485 35.4912C15.3843 25.8738 21.7179 17.5096 29.9892 11.4024C38.2605 5.29506 48.1183 1.70399 58.3798 1.06001C57.2598 0.990008 56.1398 0.960017 55.0198 0.960017C47.9424 0.863187 40.9164 2.17353 34.3497 4.81494C27.783 7.45635 21.8065 11.3762 16.7675 16.3468C11.7284 21.3173 7.72723 27.2396 4.99623 33.7695C2.26523 40.2995 0.858887 47.307 0.858887 54.385C0.858887 61.4631 2.26523 68.4705 4.99623 75.0005C7.72723 81.5304 11.7284 87.4527 16.7675 92.4233C21.8065 97.3939 27.783 101.314 34.3497 103.955C40.9164 106.596 47.9424 107.907 55.0198 107.81C55.6009 107.811 56.1794 107.733 56.7398 107.58C44.3341 106.454 32.7213 100.995 23.9398 92.16Z" fill="#9ACDA3"/>
<path d="M98.3301 47.88L74.6101 32.82C73.5693 32.1616 72.7206 31.2402 72.1497 30.1489C71.5789 29.0575 71.306 27.8349 71.3588 26.6044C71.4115 25.374 71.788 24.1792 72.4502 23.1407C73.1123 22.1023 74.0368 21.2569 75.1301 20.69L76.3401 20.05C76.6483 19.8899 76.904 19.6445 77.0766 19.3432C77.2492 19.0418 77.3314 18.6971 77.3135 18.3503C77.2956 18.0034 77.1782 17.6691 76.9755 17.3871C76.7728 17.1051 76.4932 16.8874 76.1701 16.76C71.5573 14.9939 66.6595 14.0889 61.7201 14.09C60.5901 14.09 59.4701 14.09 58.3701 14.23C63.4629 14.6417 68.4293 16.0267 73.0001 18.31L68.4501 20.69C67.3573 21.2578 66.4337 22.104 65.7724 23.1429C65.1112 24.1819 64.7358 25.3769 64.684 26.6073C64.6323 27.8378 64.9061 29.0601 65.4778 30.1509C66.0495 31.2417 66.8988 32.1624 67.9401 32.82L91.6501 47.88C92.7056 48.5517 93.9219 48.9283 95.1724 48.9705C96.4228 49.0127 97.6617 48.719 98.7601 48.12L98.3501 47.88H98.3301Z" fill="#9ACDA3"/>
<path d="M67.8699 76.6401C67.4392 76.6361 67.0134 76.5474 66.617 76.3789C66.2205 76.2104 65.8611 75.9655 65.5594 75.6582C65.2576 75.3508 65.0192 74.987 64.8581 74.5875C64.6969 74.1881 64.6159 73.7608 64.6199 73.33C64.6199 71.65 64.6199 69.78 64.6199 67.84H52.9999C52.4289 67.8402 51.8678 67.6914 51.372 67.4082C50.8762 67.125 50.4629 66.7173 50.173 66.2254C49.8831 65.7334 49.7266 65.1743 49.719 64.6034C49.7115 64.0325 49.8531 63.4695 50.1299 62.97C52.4899 58.7 60.3099 44.59 61.9999 42.52C62.6169 41.6541 63.4845 40.9982 64.4858 40.6406C65.4871 40.283 66.574 40.2409 67.5999 40.52C68.6161 40.8806 69.5012 41.5371 70.141 42.4051C70.7808 43.273 71.1461 44.3126 71.1899 45.3901C71.2799 46.4501 71.2499 54.15 71.1899 61.32H71.6999C72.5698 61.32 73.4041 61.6656 74.0192 62.2807C74.6343 62.8959 74.9799 63.7301 74.9799 64.6C74.9799 65.47 74.6343 66.3042 74.0192 66.9194C73.4041 67.5345 72.5698 67.88 71.6999 67.88H71.1499C71.1499 70.38 71.1499 72.3901 71.0999 73.4201C71.0946 74.2865 70.7467 75.1156 70.1322 75.7264C69.5176 76.3372 68.6864 76.68 67.8199 76.68L67.8699 76.6401ZM58.6099 61.28H64.6699C64.6699 57.28 64.6699 53.43 64.6699 50.56C63.0899 53.33 60.8799 57.22 58.6099 61.28Z" fill="#E27A67"/>
<path d="M36.7002 77.66C30.9902 77.66 30.5602 77.52 30.1102 77.37C29.5857 77.1995 29.1101 76.9051 28.7237 76.5117C28.3372 76.1182 28.0513 75.6374 27.8902 75.11C27.3302 73.29 28.1702 72.18 30.0202 69.77C31.5302 67.77 34.3502 64.1 39.0202 57.35C40.1941 55.7925 41.0812 54.0385 41.6402 52.17L41.7402 51.43C41.7021 50.3639 41.2726 49.3491 40.5339 48.5796C39.7951 47.81 38.7987 47.3394 37.7351 47.2578C36.6714 47.1762 35.6149 47.4892 34.7674 48.137C33.9198 48.7849 33.3406 49.7222 33.1402 50.77C33.0568 51.1928 32.8909 51.5952 32.6521 51.9539C32.4132 52.3127 32.106 52.6209 31.7481 52.8609C31.3901 53.1009 30.9884 53.2681 30.5658 53.3529C30.1432 53.4377 29.7081 53.4384 29.2852 53.355C28.8623 53.2716 28.46 53.1057 28.1013 52.8669C27.7425 52.628 27.4343 52.3208 27.1943 51.9629C26.9543 51.6049 26.7871 51.2032 26.7023 50.7806C26.6175 50.358 26.6168 49.9228 26.7002 49.5C27.2286 46.8456 28.7248 44.4824 30.8982 42.8694C33.0715 41.2564 35.7668 40.5088 38.4604 40.7718C41.1541 41.0348 43.6539 42.2897 45.4741 44.2926C47.2944 46.2955 48.3052 48.9035 48.3102 51.61C48.2647 52.2472 48.1846 52.8815 48.0702 53.51C47.3366 56.255 46.0914 58.8368 44.4002 61.12C41.2102 65.67 38.8702 68.86 37.2102 71.12C39.8902 71.12 43.2102 71.12 46.2102 71.06C47.0801 71.0494 47.9186 71.3848 48.5412 71.9924C49.1639 72.6 49.5196 73.4301 49.5302 74.3C49.5408 75.1699 49.2054 76.0084 48.5978 76.631C47.9902 77.2536 47.1601 77.6094 46.2902 77.62C42.0002 77.68 38.8902 77.7 36.6102 77.7L36.7002 77.66Z" fill="#E27A67"/>
<path d="M53.6002 66.23C53.3179 65.7331 53.1695 65.1715 53.1695 64.6C53.1695 64.0285 53.3179 63.4669 53.6002 62.97C55.9502 58.7 63.7802 44.59 65.4702 42.52C66.1335 41.6722 67.0051 41.0107 68.0002 40.6C67.8868 40.5511 67.7697 40.511 67.6502 40.48C66.6242 40.2009 65.5374 40.2429 64.5361 40.6005C63.5348 40.9582 62.6672 41.6141 62.0502 42.48C60.3602 44.55 52.5402 58.66 50.1802 62.93C49.9034 63.4294 49.7618 63.9924 49.7693 64.5634C49.7769 65.1343 49.9333 65.6934 50.2232 66.1853C50.5131 66.6772 50.9264 67.0849 51.4223 67.3681C51.9181 67.6513 52.4792 67.8002 53.0502 67.8H56.4502C55.8794 67.8002 55.3182 67.6519 54.8221 67.3696C54.3259 67.0873 53.9117 66.6808 53.6202 66.19L53.6002 66.23Z" fill="#DD636F"/>
<path d="M67.9997 73.33C67.9997 71.65 67.9997 69.78 67.9997 67.84H64.5997C64.5997 69.78 64.5997 71.65 64.5997 73.33C64.5958 73.7607 64.6767 74.188 64.8379 74.5875C64.9991 74.9869 65.2374 75.3507 65.5392 75.6581C65.841 75.9655 66.2003 76.2104 66.5968 76.3788C66.9932 76.5473 67.419 76.6361 67.8497 76.64C68.4495 76.6374 69.0372 76.4715 69.5497 76.16C69.0687 75.8626 68.6731 75.4455 68.4014 74.9495C68.1297 74.4534 67.9913 73.8954 67.9997 73.33Z" fill="#DD636F"/>
<path d="M31.6599 52.94C31.0864 52.5896 30.6336 52.0725 30.3619 51.4577C30.0903 50.843 30.0129 50.16 30.1399 49.5C30.5732 47.3088 31.6686 45.3034 33.2781 43.7547C34.8876 42.206 36.9337 41.1886 39.1399 40.84C38.578 40.7475 38.0095 40.7007 37.4399 40.7C34.9131 40.7043 32.4657 41.5832 30.5134 43.1873C28.561 44.7915 27.2242 47.022 26.7299 49.5C26.5653 50.3537 26.7453 51.2379 27.2306 51.9594C27.716 52.6808 28.4671 53.1807 29.3199 53.35C30.1237 53.5166 30.9607 53.3699 31.6599 52.94Z" fill="#DD636F"/>
<path d="M33.5101 77.37C32.9848 77.201 32.5084 76.9071 32.1217 76.5135C31.735 76.1198 31.4497 75.6382 31.2901 75.11C30.7201 73.29 31.5701 72.18 33.4101 69.77C34.9301 67.77 37.7401 64.1 42.4601 57.35C43.6325 55.7902 44.5226 54.037 45.0901 52.17L45.1801 51.43C45.1505 50.7325 44.9528 50.0525 44.6036 49.448C44.2545 48.8435 43.7644 48.3323 43.1751 47.9581C42.5858 47.5839 41.9147 47.3577 41.2191 47.2988C40.5235 47.2399 39.8239 47.3501 39.1801 47.62C39.9345 47.9416 40.5827 48.47 41.0498 49.1441C41.5169 49.8182 41.784 50.6107 41.8201 51.43L41.7201 52.17C41.1611 54.0385 40.2739 55.7925 39.1001 57.35C34.3801 64.1 31.5601 67.78 30.1001 69.77C28.2501 72.18 27.4101 73.29 27.9701 75.11C28.1312 75.6374 28.4171 76.1182 28.8035 76.5117C29.19 76.9051 29.6656 77.1995 30.1901 77.37C30.6401 77.52 31.0701 77.66 36.7801 77.66H38.6201C34.3801 77.66 33.9901 77.51 33.6201 77.38L33.5101 77.37Z" fill="#DD636F"/>
<path d="M91.5398 107.64C91 107.645 90.4676 107.514 89.991 107.261C89.5144 107.008 89.1086 106.639 88.8105 106.189C88.5125 105.739 88.3316 105.222 88.2843 104.684C88.2371 104.146 88.3249 103.605 88.5398 103.11L99.4498 78.3H88.2998C87.4432 78.3 86.6216 77.9597 86.0159 77.354C85.4101 76.7482 85.0698 75.9267 85.0698 75.07C85.0698 74.2134 85.4101 73.3918 86.0159 72.7861C86.6216 72.1803 87.4432 71.84 88.2998 71.84H104.44C104.981 71.8301 105.517 71.9571 105.996 72.209C106.476 72.461 106.884 72.8299 107.183 73.2816C107.482 73.7332 107.663 74.253 107.708 74.7929C107.752 75.3328 107.66 75.8752 107.44 76.37L94.5398 105.71C94.2846 106.291 93.8639 106.784 93.3304 107.127C92.7969 107.47 92.1741 107.648 91.5398 107.64Z" fill="#92D4F5"/>
<path d="M91.3101 78.3H88.3101C87.4832 78.254 86.7053 77.8931 86.1362 77.2915C85.5671 76.6898 85.25 75.8931 85.25 75.065C85.25 74.2368 85.5671 73.4401 86.1362 72.8385C86.7053 72.2368 87.4832 71.8759 88.3101 71.83H91.3101C90.4832 71.8759 89.7053 72.2368 89.1362 72.8385C88.5671 73.4401 88.25 74.2368 88.25 75.065C88.25 75.8931 88.5671 76.6898 89.1362 77.2915C89.7053 77.8931 90.4832 78.254 91.3101 78.3Z" fill="#87B0DF"/>
<path d="M93.05 107.27C92.5837 107.513 92.0657 107.64 91.54 107.64C91.0917 107.64 90.6486 107.544 90.24 107.36C89.8514 107.191 89.5 106.946 89.2061 106.641C88.9122 106.335 88.6815 105.975 88.5273 105.58C88.3731 105.185 88.2983 104.763 88.3074 104.34C88.3164 103.916 88.409 103.498 88.58 103.11L99.49 78.3H102.49L91.58 103.11C91.251 103.859 91.2189 104.706 91.4899 105.478C91.7609 106.25 92.3149 106.891 93.04 107.27H93.05Z" fill="#87B0DF"/>
<path d="M69.4402 94.7C69.1663 94.7008 68.8967 94.6318 68.6569 94.4994C68.4171 94.3669 68.2151 94.1755 68.0699 93.9433C67.9247 93.711 67.8412 93.4455 67.8273 93.172C67.8133 92.8984 67.8694 92.6258 67.9902 92.38L86.6202 54.26C86.8085 53.8754 87.1419 53.5814 87.547 53.4426C87.952 53.3038 88.3956 53.3317 88.7802 53.52C89.1648 53.7083 89.4588 54.0416 89.5975 54.4467C89.7363 54.8518 89.7085 55.2954 89.5202 55.68L70.8902 93.8C70.7562 94.07 70.5495 94.2974 70.2933 94.4564C70.0372 94.6154 69.7417 94.6998 69.4402 94.7Z" fill="#868186"/>
</svg>
