<svg width="110" height="106" viewBox="0 0 110 106" fill="none" xmlns="http://www.w3.org/2000/svg">
<path d="M45.9998 61.52H27.7198C27.2822 61.52 26.8625 61.3461 26.5531 61.0367C26.2437 60.7273 26.0698 60.3076 26.0698 59.87C26.0698 59.4324 26.2437 59.0127 26.5531 58.7033C26.8625 58.3938 27.2822 58.22 27.7198 58.22H45.9998C46.4374 58.22 46.8571 58.3938 47.1665 58.7033C47.476 59.0127 47.6498 59.4324 47.6498 59.87C47.6498 60.3076 47.476 60.7273 47.1665 61.0367C46.8571 61.3461 46.4374 61.52 45.9998 61.52Z" fill="#A2D9F0"/>
<path d="M67.2001 68.86H63.2001C62.7625 68.86 62.3428 68.6862 62.0333 68.3767C61.7239 68.0673 61.55 67.6476 61.55 67.21C61.55 66.7724 61.7239 66.3527 62.0333 66.0433C62.3428 65.7338 62.7625 65.56 63.2001 65.56H67.2001C67.6377 65.56 68.0574 65.7338 68.3668 66.0433C68.6762 66.3527 68.8501 66.7724 68.8501 67.21C68.8501 67.6476 68.6762 68.0673 68.3668 68.3767C68.0574 68.6862 67.6377 68.86 67.2001 68.86Z" fill="#A2D9F0"/>
<path d="M55.45 68.86H32.63C32.1924 68.86 31.7727 68.6862 31.4633 68.3767C31.1538 68.0673 30.98 67.6476 30.98 67.21C30.98 66.7724 31.1538 66.3527 31.4633 66.0433C31.7727 65.7338 32.1924 65.56 32.63 65.56H55.45C55.8876 65.56 56.3073 65.7338 56.6167 66.0433C56.9261 66.3527 57.1 66.7724 57.1 67.21C57.1 67.6476 56.9261 68.0673 56.6167 68.3767C56.3073 68.6862 55.8876 68.86 55.45 68.86Z" fill="#A2D9F0"/>
<path d="M104.38 66.77H102C101.617 66.7691 101.245 66.8938 100.939 67.125C100.634 67.3562 100.413 67.6811 100.31 68.05C97.5171 77.9495 91.7859 86.7685 83.8739 93.3413C75.9619 99.9141 66.2416 103.931 55.9979 104.862C45.7541 105.793 35.469 103.593 26.502 98.5537C17.5351 93.5144 10.3083 85.8727 5.77688 76.6387C1.24548 67.4046 -0.377215 57.0129 1.12326 46.837C2.62373 36.661 7.17671 27.18 14.1805 19.6468C21.1842 12.1136 30.3091 6.88307 40.3489 4.64641C50.3888 2.40974 60.871 3.27227 70.4102 7.12001C70.8341 7.29104 71.2088 7.56467 71.5008 7.91633C71.7929 8.268 71.993 8.6867 72.0832 9.13481C72.1734 9.58291 72.1509 10.0464 72.0177 10.4837C71.8845 10.9209 71.6449 11.3183 71.3202 11.64L65.4302 17.54C64.8529 18.1163 64.1337 18.5298 63.3452 18.7388C62.5568 18.9478 61.7271 18.9448 60.9402 18.73C57.8156 17.8946 54.5945 17.4743 51.3602 17.48C50.3002 17.48 49.2502 17.48 48.2102 17.61C39.0292 18.3986 30.4781 22.6029 24.2473 29.3918C18.0165 36.1807 14.5594 45.0602 14.5594 54.275C14.5594 63.4898 18.0165 72.3693 24.2473 79.1582C30.4781 85.9471 39.0292 90.1514 48.2102 90.94C49.0702 91.01 49.9502 91.05 50.8302 91.07C58.0389 91.177 65.1203 89.1642 71.195 85.2815C77.2697 81.3988 82.0701 75.8173 85.0002 69.23C85.1188 68.9628 85.1686 68.6701 85.145 68.3786C85.1214 68.0872 85.0251 67.8063 84.865 67.5617C84.7048 67.317 84.486 67.1164 84.2284 66.9781C83.9707 66.8398 83.6826 66.7682 83.3902 66.77H81.0002C79.9983 66.7568 79.0201 66.4641 78.1756 65.9249C77.3312 65.3857 76.6541 64.6213 76.2206 63.718C75.7871 62.8147 75.6146 61.8083 75.7223 60.8122C75.8299 59.8161 76.2136 58.8698 76.8302 58.08L88.1902 43.93C88.7287 43.253 89.413 42.7063 90.1921 42.3305C90.9712 41.9546 91.8251 41.7595 92.6902 41.7595C93.5552 41.7595 94.4091 41.9546 95.1882 42.3305C95.9674 42.7063 96.6517 43.253 97.1902 43.93L108.55 58.08C111.36 61.4 108.75 66.9 104.38 66.77Z" fill="#BAD36B"/>
<path d="M48.1999 90.94C46.9999 91.04 45.7799 91.09 44.5499 91.07C34.8868 90.8571 25.6954 86.851 18.9615 79.9174C12.2276 72.9837 8.49189 63.6791 8.5615 54.0139C8.63111 44.3487 12.5004 35.0989 19.3335 28.2629C26.1665 21.4269 35.4147 17.5537 45.0799 17.48C46.0799 17.48 47.1599 17.48 48.1899 17.61C39.0089 18.3986 30.4578 22.6029 24.227 29.3918C17.9962 36.1807 14.5391 45.0602 14.5391 54.275C14.5391 63.4898 17.9962 72.3693 24.227 79.1582C30.4578 85.9471 39.0089 90.1514 48.1899 90.94H48.1999Z" fill="#A3C733"/>
<path d="M64.13 7.12C64.5521 7.293 64.925 7.56758 65.2154 7.91934C65.5059 8.27111 65.705 8.68916 65.795 9.13638C65.8851 9.5836 65.8633 10.0461 65.7315 10.4829C65.5998 10.9197 65.3623 11.3171 65.04 11.64L59.15 17.54C58.9164 17.7709 58.6582 17.9754 58.38 18.15C59.24 18.32 60.09 18.51 60.92 18.73C61.7068 18.9458 62.5368 18.9493 63.3254 18.7403C64.1141 18.5313 64.8333 18.1172 65.41 17.54L71.3 11.64C71.6246 11.3183 71.8644 10.9209 71.9975 10.4836C72.1307 10.0464 72.1532 9.5829 72.063 9.1348C71.9728 8.68669 71.7727 8.26798 71.4807 7.91632C71.1886 7.56466 70.8139 7.29103 70.39 7.12C64.408 4.70553 58.0208 3.45319 51.57 3.42999C50.44 3.42999 49.33 3.43 48.22 3.53C53.683 3.85528 59.0566 5.06781 64.13 7.12Z" fill="#A3C733"/>
<path d="M108.55 58.08L97.1899 43.93C96.698 43.3161 96.0856 42.8095 95.3904 42.4413C94.6952 42.0732 93.9319 41.8514 93.1477 41.7896C92.3635 41.7277 91.5749 41.8272 90.8306 42.0818C90.0862 42.3364 89.402 42.7408 88.8199 43.27C90.175 43.5188 91.3937 44.2507 92.2499 45.33L102.25 58.08C102.866 58.8698 103.25 59.816 103.358 60.8122C103.466 61.8083 103.293 62.8147 102.859 63.718C102.426 64.6213 101.749 65.3856 100.904 65.9249C100.06 66.4641 99.0818 66.7568 98.0799 66.77H95.6799C95.2983 66.7696 94.9271 66.8947 94.6235 67.1259C94.3199 67.3572 94.1008 67.6819 93.9999 68.05C91.1417 78.2033 85.1991 87.2175 76.9941 93.846C68.7891 100.474 58.7272 104.39 48.2 105.05C49.2 105.11 50.2599 105.15 51.3099 105.15C62.4021 105.158 73.1929 101.541 82.0388 94.8485C90.8847 88.1563 97.3009 78.7562 100.31 68.08C100.413 67.7111 100.634 67.3862 100.939 67.155C101.244 66.9238 101.617 66.7991 102 66.8H104.4C108.78 66.93 111.4 61.43 108.57 58.11L108.55 58.08Z" fill="#A3C733"/>
<path d="M97.08 18.68L60.85 54.91L56.13 53.37L53.97 52.67L51.75 45.81L88 9.57999L95.65 11.66L96.03 13.48L97.08 18.68Z" fill="#4388C8"/>
<path d="M97.0799 18.68L60.8499 54.91L56.1299 53.37L95.9999 13.48L97.0799 18.68Z" fill="#3C75BA"/>
<path d="M104.56 11.2L97.08 18.68L87.98 9.57999L95.47 2.10001C96.0675 1.50315 96.7767 1.02983 97.5572 0.707063C98.3376 0.384297 99.1739 0.218409 100.018 0.218873C100.863 0.219337 101.699 0.386124 102.479 0.709748C103.259 1.03337 103.968 1.5075 104.565 2.10501C105.162 2.70253 105.635 3.41173 105.958 4.19217C106.281 4.97261 106.447 5.80899 106.446 6.65353C106.446 7.49808 106.279 8.33427 105.955 9.11435C105.632 9.89443 105.157 10.6032 104.56 11.2Z" fill="#EE7382"/>
<path d="M104.56 2.1C103.571 1.1102 102.285 0.470175 100.899 0.277066C99.5134 0.0839581 98.1022 0.348307 96.88 1.03C97.4015 1.31785 97.8795 1.6781 98.3 2.1C99.503 3.30872 100.178 4.94465 100.178 6.64999C100.178 8.35533 99.503 9.99129 98.3 11.2L94 15.55L97.13 18.68L104.61 11.2C105.209 10.6035 105.685 9.89444 106.009 9.11361C106.334 8.33279 106.501 7.49555 106.501 6.64999C106.501 5.80443 106.334 4.96722 106.009 4.1864C105.685 3.40558 105.209 2.69653 104.61 2.1H104.56Z" fill="#EA556A"/>
<path d="M60.85 54.91L58.25 57.51C57.3788 58.3753 56.2908 58.9902 55.1 59.29L46.44 61.48C46.2646 61.537 46.0769 61.5443 45.8976 61.5013C45.7183 61.4582 45.5544 61.3664 45.424 61.236C45.2936 61.1056 45.2018 60.9417 45.1587 60.7624C45.1157 60.5831 45.1231 60.3954 45.18 60.22L47.37 51.56C47.6718 50.3678 48.2903 49.2794 49.16 48.41L51.75 45.81L60.85 54.91Z" fill="#FFF3BF"/>
<path d="M52 57.51C51.1273 58.3734 50.0398 58.9879 48.85 59.29L45.19 60.22C45.1331 60.3954 45.1257 60.5831 45.1688 60.7624C45.2118 60.9417 45.3036 61.1056 45.434 61.236C45.5644 61.3664 45.7283 61.4582 45.9076 61.5013C46.0869 61.5443 46.2747 61.537 46.45 61.48L55.11 59.29C56.3007 58.9902 57.3888 58.3753 58.26 57.51L60.86 54.91L57.73 51.78L52 57.51Z" fill="#FFEC9D"/>
<path d="M81.52 16L83.85 13.67L92.94 22.77L90.61 25.1L81.52 16Z" fill="#3C75BA"/>
</svg>
