<svg width="108" height="105" viewBox="0 0 108 105" fill="none" xmlns="http://www.w3.org/2000/svg">
<path d="M48.89 36.86V45.69L42.17 52.4L35.46 45.69V36.86C37.4287 38.2363 39.7728 38.9744 42.175 38.9744C44.5771 38.9744 46.9212 38.2363 48.89 36.86Z" fill="#EFAEAC"/>
<path d="M105.86 43.34C105.521 42.9794 105.114 42.6893 104.662 42.4861C104.211 42.283 103.723 42.1707 103.228 42.1559C102.733 42.141 102.24 42.2238 101.777 42.3995C101.314 42.5753 100.891 42.8405 100.53 43.18C100.345 43.3569 100.178 43.5511 100.03 43.76L99.2402 44.76L100.08 12.87C100.08 12.207 100.344 11.5711 100.812 11.1022C101.281 10.6334 101.917 10.37 102.58 10.37C103.243 10.37 103.879 10.6334 104.348 11.1022C104.817 11.5711 105.08 12.207 105.08 12.87L105.86 43.34Z" fill="#FDD07C"/>
<path d="M105.85 41.65C105.384 41.302 104.854 41.0493 104.29 40.9061C103.726 40.763 103.139 40.7324 102.563 40.816C101.988 40.8995 101.434 41.0957 100.934 41.3932C100.434 41.6908 99.9979 42.0838 99.6499 42.55L83.2999 64.87L70.6999 54.08L57.2699 49.08L48.8899 44.08L42.1699 50.79L35.4599 44L27.0699 49L20.1799 51.58C18.2627 52.3 16.6106 53.5873 15.4439 55.2703C14.2772 56.9534 13.6514 58.9521 13.6499 61V104.36H68.9999C69.2205 104.36 69.439 104.317 69.6428 104.232C69.8466 104.148 70.0318 104.024 70.1878 103.868C70.3438 103.712 70.4676 103.527 70.552 103.323C70.6364 103.119 70.6799 102.901 70.6799 102.68V77.57L84.2499 83.33C84.6242 83.4885 85.0432 83.5059 85.4294 83.3791C85.8155 83.2522 86.1426 82.9896 86.3499 82.64L107 47.4C107.394 46.7225 107.604 45.9538 107.61 45.17C107.609 44.4871 107.45 43.8137 107.144 43.2028C106.839 42.592 106.396 42.0604 105.85 41.65Z" fill="#DCEDFB"/>
<path d="M42.17 96L48.89 91L45.53 59.11L52.4 46.11L48.89 44L42.17 50.71L35.46 44L32 46.12L38.87 59.12L35.46 91L42.17 96Z" fill="#EF7E87"/>
<path d="M48.89 0.390015H35.46C33.9492 0.393765 32.4837 0.905737 31.2992 1.84353C30.1147 2.78132 29.2802 4.09038 28.93 5.56002C26.991 5.90465 25.2347 6.91962 23.9681 8.42758C22.7014 9.93555 22.0048 11.8406 22 13.81V28.07C22 28.2906 22.0435 28.5091 22.1279 28.7129C22.2123 28.9168 22.3361 29.102 22.4921 29.258C22.6481 29.414 22.8333 29.5377 23.0371 29.6221C23.2409 29.7066 23.4594 29.75 23.68 29.75H60.59C60.8106 29.75 61.0291 29.7066 61.2329 29.6221C61.4367 29.5377 61.6219 29.414 61.7779 29.258C61.9339 29.102 62.0577 28.9168 62.1421 28.7129C62.2265 28.5091 62.27 28.2906 62.27 28.07V13.81C62.2647 10.2593 60.8547 6.85501 58.3477 4.34056C55.8407 1.82611 52.4406 0.405862 48.89 0.390015Z" fill="#414151"/>
<path d="M35.46 91L42.17 96L48.89 91L45.53 59.11H38.82L35.46 91Z" fill="#EA6161"/>
<path d="M105.85 41.65C105.384 41.302 104.854 41.0493 104.29 40.9061C103.726 40.763 103.139 40.7324 102.564 40.816C101.988 40.8995 101.434 41.0957 100.934 41.3932C100.434 41.6908 99.998 42.0838 99.65 42.55L83.3 64.87L70.7 54.08L57.27 49.08V104.44H69C69.2206 104.44 69.4391 104.397 69.6429 104.312C69.8468 104.228 70.032 104.104 70.188 103.948C70.344 103.792 70.4677 103.607 70.5521 103.403C70.6366 103.199 70.68 102.981 70.68 102.76V77.57L84.25 83.33C84.6243 83.4885 85.0433 83.5059 85.4295 83.3791C85.8156 83.2522 86.1427 82.9896 86.35 82.64L107 47.4C107.394 46.7225 107.604 45.9538 107.61 45.17C107.609 44.4871 107.45 43.8137 107.144 43.2028C106.839 42.592 106.396 42.0604 105.85 41.65Z" fill="#676173"/>
<path d="M27.0699 49.05L20.1799 51.63C18.2627 52.35 16.6106 53.6373 15.4439 55.3203C14.2772 57.0034 13.6514 59.0022 13.6499 61.05V104.41H27.0699V49.05Z" fill="#676173"/>
<path d="M55.6 22.2C54.8543 22.1988 54.1126 22.3101 53.4 22.53C53.0632 22.6412 52.77 22.8556 52.5618 23.1428C52.3536 23.4299 52.241 23.7753 52.24 24.13V27.23C52.2409 28.5228 51.9895 29.8034 51.5 31C51.3365 31.3916 51.3282 31.8307 51.4768 32.2282C51.6254 32.6257 51.9198 32.9517 52.3 33.14C53.3253 33.6495 54.4551 33.9131 55.6 33.91C57.2669 34.009 58.9058 33.4475 60.1617 32.347C61.4175 31.2464 62.1894 29.6955 62.31 28.03C62.1769 26.3735 61.3997 24.8351 60.1452 23.7452C58.8907 22.6552 57.2589 22.1005 55.6 22.2Z" fill="#EFAEAC"/>
<path d="M32.11 27.23V24.13C32.1126 23.7814 32.0073 23.4405 31.8086 23.1541C31.6099 22.8676 31.3275 22.6497 31 22.53C30.2874 22.3101 29.5458 22.1989 28.8 22.2C27.9678 22.1374 27.1313 22.2396 26.3387 22.5009C25.546 22.7623 24.8128 23.1775 24.181 23.7229C23.5492 24.2683 23.0314 24.933 22.6571 25.679C22.2828 26.425 22.0595 27.2375 22 28.07C22.0521 28.9032 22.2683 29.7179 22.6361 30.4673C23.0039 31.2168 23.5161 31.8862 24.1432 32.4371C24.7704 32.9881 25.5002 33.4098 26.2907 33.678C27.0813 33.9462 27.917 34.0556 28.75 34C29.8949 34.0032 31.0247 33.7395 32.05 33.23C32.4303 33.0417 32.7246 32.7157 32.8732 32.3182C33.0218 31.9208 33.0135 31.4816 32.85 31.09C32.3489 29.8654 32.0973 28.5531 32.11 27.23Z" fill="#EFAEAC"/>
<path d="M22 94.34C22 95.2294 21.6474 96.0826 21.0194 96.7124C20.3914 97.3422 19.5394 97.6974 18.65 97.7V104.41H3.58998C2.70219 104.405 1.8521 104.051 1.22339 103.424C0.594685 102.797 0.237845 101.948 0.22998 101.06C0.232618 100.17 0.587467 99.3166 1.21702 98.6871C1.84657 98.0575 2.69967 97.7027 3.58998 97.7V91C2.70047 90.9948 1.84889 90.6391 1.2199 90.0101C0.590914 89.3811 0.235228 88.5295 0.22998 87.64C0.23525 86.7515 0.59126 85.9009 1.22053 85.2735C1.8498 84.6461 2.70139 84.2927 3.58998 84.29H18.69V91C19.5673 91.0182 20.4033 91.3768 21.021 92.0001C21.6387 92.6234 21.9898 93.4625 22 94.34Z" fill="#FDD07C"/>
<path d="M3.59011 97.7C3.13412 97.6751 2.67784 97.7434 2.24913 97.9008C1.82042 98.0581 1.42829 98.3012 1.09669 98.6152C0.765083 98.9292 0.500968 99.3075 0.320469 99.727C0.13997 100.146 0.046875 100.598 0.046875 101.055C0.046875 101.512 0.13997 101.964 0.320469 102.383C0.500968 102.803 0.765083 103.181 1.09669 103.495C1.42829 103.809 1.82042 104.052 2.24913 104.209C2.67784 104.367 3.13412 104.435 3.59011 104.41H18.6901V97.7H3.59011Z" fill="#EF7E87"/>
<path d="M3.59011 84.28C3.13412 84.2551 2.67784 84.3234 2.24913 84.4808C1.82042 84.6381 1.42829 84.8812 1.09669 85.1952C0.765083 85.5092 0.500968 85.8875 0.320469 86.307C0.13997 86.7265 0.046875 87.1784 0.046875 87.635C0.046875 88.0917 0.13997 88.5436 0.320469 88.9631C0.500968 89.3825 0.765083 89.7608 1.09669 90.0748C1.42829 90.3888 1.82042 90.6319 2.24913 90.7893C2.67784 90.9466 3.13412 91.0149 3.59011 90.99H18.6901V84.28H3.59011Z" fill="#BB9AC8"/>
<path d="M105.85 41.65C105.384 41.302 104.854 41.0493 104.29 40.9061C103.726 40.763 103.139 40.7324 102.564 40.816C101.988 40.8995 101.434 41.0957 100.934 41.3932C100.435 41.6908 99.9981 42.0838 99.6501 42.55L96.3301 47.07L103.87 52.72L107 47.4C107.394 46.7225 107.604 45.9538 107.61 45.17C107.609 44.4871 107.45 43.8137 107.145 43.2028C106.839 42.592 106.396 42.0604 105.85 41.65Z" fill="#EFAEAC"/>
<path d="M50.5599 55.76L42.1699 50.76L48.8899 44L57.2699 49L50.5599 55.76Z" fill="#BAD5EF"/>
<path d="M33.7903 55.76L42.1703 50.76L35.4603 44L27.0703 49L33.7903 55.76Z" fill="#BAD5EF"/>
<path d="M53.92 17.17C42.92 17.17 38.11 14.12 38.07 14.09C37.887 13.968 37.6816 13.8834 37.4658 13.841C37.25 13.7986 37.0279 13.7993 36.8123 13.8429C36.5968 13.8866 36.392 13.9724 36.2096 14.0955C36.0273 14.2185 35.8711 14.3764 35.75 14.56L35.69 14.65C34.25 17.11 30.46 17.17 30.43 17.17C29.9844 17.17 29.5571 17.347 29.2421 17.662C28.927 17.9771 28.75 18.4044 28.75 18.85V27.23C28.8455 30.7271 30.3017 34.0489 32.809 36.4887C35.3163 38.9284 38.6766 40.2935 42.175 40.2935C45.6734 40.2935 49.0337 38.9284 51.541 36.4887C54.0483 34.0489 55.5045 30.7271 55.6 27.23V18.85C55.6 18.6294 55.5565 18.4109 55.4721 18.2071C55.3877 18.0033 55.2639 17.818 55.1079 17.662C54.9519 17.506 54.7667 17.3823 54.5629 17.2979C54.3591 17.2134 54.1406 17.17 53.92 17.17Z" fill="#FAD2CB"/>
<path d="M74.0502 72.53V79L70.7002 77.58V72.58C70.7328 72.1581 70.9234 71.7641 71.234 71.4767C71.5445 71.1892 71.9521 71.0295 72.3752 71.0295C72.7983 71.0295 73.2059 71.1892 73.5164 71.4767C73.827 71.7641 74.0176 72.1581 74.0502 72.58V72.53Z" fill="#4E4C5F"/>
<path d="M83.2999 64.87L80.7499 68.34C80.6203 68.5195 80.4561 68.6713 80.267 68.7864C80.0778 68.9014 79.8676 68.9775 79.6486 69.0101C79.4297 69.0427 79.2064 69.0312 78.9919 68.9762C78.7775 68.9213 78.5762 68.824 78.3999 68.69C78.2218 68.5595 78.0713 68.3951 77.9568 68.2063C77.8423 68.0175 77.7662 67.8079 77.7328 67.5897C77.6993 67.3714 77.7092 67.1487 77.7619 66.9343C77.8146 66.7199 77.9091 66.5179 78.0399 66.34L80.7299 62.67L83.2999 64.87Z" fill="#4E4C5F"/>
</svg>
