<svg width="41" height="41" viewBox="0 0 41 41" fill="none" xmlns="http://www.w3.org/2000/svg">
<mask id="mask0_1_362" style="mask-type:alpha" maskUnits="userSpaceOnUse" x="0" y="0" width="41" height="41">
<rect x="0.333374" y="0.104248" width="40" height="40" fill="#D9D9D9"/>
</mask>
<g mask="url(#mask0_1_362)">
<path d="M21.6966 17.9311V7.98879C21.6966 7.64371 21.8142 7.35446 22.0493 7.12104C22.2844 6.8876 22.5756 6.77087 22.9231 6.77087H32.4532C32.8007 6.77087 33.0898 6.8876 33.3206 7.12104C33.5514 7.35446 33.6667 7.64371 33.6667 7.98879V13.7922C33.6667 14.1234 33.55 14.4092 33.3166 14.6496C33.0831 14.89 32.7939 15.0102 32.4488 15.0102H24.6924L21.6966 17.9311ZM23.1069 13.5999H32.2565V8.18112H23.1069V13.5999ZM31.8441 33.4375C29.1155 33.4375 26.2825 32.7273 23.3451 31.3067C20.4078 29.8861 17.6596 27.8909 15.1005 25.3211C12.5414 22.7513 10.5515 20.0031 9.13094 17.0764C7.71035 14.1498 7.00006 11.3221 7.00006 8.5935C7.00006 8.07275 7.17059 7.63879 7.51164 7.29162C7.85273 6.94446 8.27906 6.77087 8.79064 6.77087H12.616C13.0871 6.77087 13.4858 6.91457 13.812 7.20196C14.1382 7.48935 14.3655 7.86772 14.4936 8.33708L15.3464 12.1263C15.4104 12.576 15.3911 12.976 15.2885 13.3264C15.186 13.6769 15.0072 13.9653 14.7523 14.1917L11.0609 17.6362C11.7989 18.9361 12.5886 20.1368 13.4301 21.2383C14.2716 22.3398 15.1656 23.3713 16.1122 24.3328C17.1343 25.3734 18.2323 26.3277 19.4061 27.1955C20.5798 28.0634 21.8626 28.8784 23.2544 29.6405L26.8462 25.9653C27.1219 25.6641 27.4237 25.4644 27.7519 25.3665C28.08 25.2686 28.444 25.2474 28.8441 25.3029L32.1005 26.008C32.572 26.1049 32.9509 26.3336 33.2373 26.6941C33.5236 27.0546 33.6667 27.4676 33.6667 27.9333V31.647C33.6667 32.1585 33.4931 32.5849 33.146 32.926C32.7988 33.267 32.3649 33.4375 31.8441 33.4375ZM10.3729 16.3563L13.7746 13.2046C13.8672 13.1192 13.9295 13.0016 13.9616 12.8521C13.9937 12.7025 13.9954 12.5636 13.9669 12.4354L13.1454 8.69396C13.1169 8.52301 13.0456 8.3948 12.9317 8.30933C12.8177 8.22386 12.6753 8.18112 12.5044 8.18112H8.86223C8.73403 8.18112 8.6272 8.22386 8.54173 8.30933C8.45626 8.3948 8.41352 8.50164 8.41352 8.62983C8.41849 9.773 8.59228 10.9924 8.93489 12.288C9.27748 13.5835 9.75682 14.9397 10.3729 16.3563ZM24.6122 30.3008C25.7469 30.8813 26.9853 31.3129 28.3275 31.5957C29.6698 31.8784 30.8299 32.0273 31.8078 32.0422C31.936 32.0422 32.0428 31.9995 32.1283 31.914C32.2137 31.8286 32.2565 31.7217 32.2565 31.5935V27.9974C32.2565 27.8264 32.2137 27.684 32.1283 27.57C32.0428 27.4561 31.9146 27.3848 31.7436 27.3563L28.5385 26.6908C28.4103 26.6623 28.2981 26.664 28.202 26.6961C28.1058 26.7281 28.0044 26.7905 27.8975 26.883L24.6122 30.3008Z" fill="#1C1B1F"/>
</g>
</svg>
