<svg width="41" height="51" viewBox="0 0 41 51" fill="none" xmlns="http://www.w3.org/2000/svg">
<path d="M35.6921 33.0389C35.1333 31.9556 33.9958 31.8122 33.5325 31.8002L33.3888 31.5589C34.3858 31.071 35.0758 30.0485 35.0758 28.866C35.0758 27.2122 33.7304 25.8668 32.0767 25.8668C30.4229 25.8668 29.0775 27.2122 29.0775 28.866C29.0775 30.0489 29.7675 31.071 30.7642 31.5589L30.6204 31.8006C30.1575 31.8122 29.02 31.956 28.4613 33.0393C27.9971 33.9385 26.7404 36.1531 26.1858 37.1256C25.6313 36.1531 24.3746 33.9389 23.9108 33.0393C23.3521 31.956 22.2146 31.8127 21.7513 31.8006L21.6075 31.5593C22.6046 31.0714 23.2946 30.0489 23.2946 28.8664C23.2946 27.2127 21.9492 25.8672 20.2954 25.8672C18.6417 25.8672 17.2963 27.2127 17.2963 28.8664C17.2963 30.0493 17.9863 31.0714 18.9829 31.5593L18.8392 31.801C18.3763 31.8127 17.2388 31.9564 16.68 33.0397C16.2158 33.9393 14.9592 36.1535 14.4046 37.126C13.85 36.1535 12.5933 33.9393 12.1292 33.0397C11.5704 31.9564 10.4329 31.8131 9.97001 31.801L9.82626 31.5597C10.8233 31.0718 11.5133 30.0493 11.5133 28.8668C11.5133 27.2131 10.1679 25.8677 8.51418 25.8677C6.86043 25.8677 5.51543 27.2131 5.51543 28.8668C5.51543 30.0497 6.20543 31.0718 7.2021 31.5597L7.05834 31.801C6.59543 31.8127 5.45793 31.9564 4.89876 33.0397C4.29959 34.2014 2.37209 37.5668 2.35251 37.6006L2.08459 38.0685H4.43751L5.83793 35.7743L6.07626 38.0685H8.51418H10.9521L11.1904 35.7743L12.5908 38.0685H13.8654H14.9442H16.2188L17.6192 35.7743L17.8575 38.0685H20.2954H22.7333L22.9717 35.7743L24.3721 38.0685H25.6467H26.725H27.9996L29.4004 35.7743L29.6388 38.0685H32.0767H34.5146L34.7529 35.7743L36.1533 38.0685H38.5063L38.2383 37.6006C38.2192 37.566 36.2917 34.201 35.6921 33.0389ZM6.14126 28.866C6.14126 27.5568 7.20626 26.4918 8.51501 26.4918C9.82418 26.4918 10.8892 27.5568 10.8892 28.866C10.8892 30.1752 9.82418 31.2406 8.51501 31.2406C7.20626 31.2406 6.14126 30.1752 6.14126 28.866ZM12.9429 37.4427L10.7613 33.8685L10.39 37.4427H8.51543H6.64126L6.27001 33.8685L4.08834 37.4427H3.16334C3.71918 36.4681 4.97918 34.2485 5.45543 33.3256C5.96001 32.3477 7.16168 32.4235 7.21126 32.4268L7.40501 32.4422L7.80126 31.776C8.03043 31.8322 8.26876 31.8656 8.51501 31.8656C8.76168 31.8656 9.00001 31.8322 9.22918 31.776L9.62543 32.441L9.81793 32.4272C9.86918 32.4235 11.0704 32.3489 11.5746 33.3256C12.0508 34.2485 13.3108 36.4681 13.8667 37.4427H12.9429ZM17.9221 28.866C17.9221 27.5568 18.9871 26.4918 20.2963 26.4918C21.6054 26.4918 22.6704 27.5568 22.6704 28.866C22.6704 30.1752 21.6054 31.2406 20.2963 31.2406C18.9871 31.2406 17.9221 30.1752 17.9221 28.866ZM24.7238 37.4427L22.5417 33.8689L22.1704 37.4431H20.2963H18.4217L18.0504 33.8689L15.8688 37.4431H14.9442C15.5 36.4685 16.76 34.2489 17.2363 33.326C17.7404 32.3489 18.9425 32.4243 18.9917 32.4272L19.1854 32.4427L19.5817 31.7764C19.8108 31.8327 20.0496 31.866 20.2958 31.866C20.5425 31.866 20.7808 31.8327 21.01 31.7764L21.4063 32.4414L21.5988 32.4277C21.6488 32.4239 22.8517 32.3493 23.3554 33.326C23.8317 34.2489 25.0917 36.4685 25.6475 37.4431L24.7238 37.4427ZM29.7029 28.866C29.7029 27.5568 30.7679 26.4918 32.0771 26.4918C33.3863 26.4918 34.4513 27.5568 34.4513 28.866C34.4513 30.1752 33.3863 31.2406 32.0771 31.2406C30.7679 31.2406 29.7029 30.1752 29.7029 28.866ZM36.5046 37.4427L34.3229 33.8685L33.9517 37.4427H32.0775H30.2033L29.8321 33.8685L27.65 37.4427H26.725C27.2808 36.4681 28.5408 34.2485 29.0171 33.3256C29.5213 32.3485 30.7233 32.4239 30.7725 32.4268L30.9663 32.4422L31.3625 31.776C31.5917 31.8322 31.8304 31.8656 32.0767 31.8656C32.3233 31.8656 32.5617 31.8322 32.7908 31.776L33.1871 32.441L33.3796 32.4272C33.4304 32.4235 34.6321 32.3489 35.1363 33.3256C35.6125 34.2485 36.8725 36.4681 37.4283 37.4427H36.5046Z" fill="black"/>
<path d="M17.1988 19.2235V20.9497H19.813V23.9772H35.74V20.9497H38.3542V19.2235H36.4655C35.9809 18.3764 33.6534 14.2981 32.8742 12.7877C32.0663 11.2218 30.3809 11.0747 29.7988 11.0727L29.4746 10.5272C30.9421 9.87391 31.9692 8.40432 31.9692 6.69682C31.9692 4.38474 30.0884 2.50391 27.7763 2.50391C25.4642 2.50391 23.5834 4.38516 23.5834 6.69724C23.5834 8.40432 24.6105 9.87432 26.078 10.5277L25.7534 11.0731C25.1717 11.0752 23.4863 11.2222 22.6784 12.7881C21.8988 14.2985 19.5717 18.3768 19.0871 19.2239L17.1988 19.2235ZM35.115 23.3522H20.438V20.9497H35.115V23.3522ZM24.2084 6.69724C24.2084 4.72974 25.8092 3.12932 27.7763 3.12932C29.7434 3.12932 31.3442 4.72974 31.3442 6.69724C31.3442 8.66474 29.7438 10.2652 27.7763 10.2652C25.8088 10.2652 24.2084 8.66432 24.2084 6.69724ZM23.2338 13.0743C24.0063 11.5781 25.8284 11.6964 25.9042 11.7018L26.098 11.7164L26.6792 10.7397C27.0296 10.8352 27.3963 10.8906 27.7767 10.8906C28.1571 10.8906 28.5238 10.8352 28.8742 10.7402L29.4555 11.7177L29.6492 11.7022C29.6675 11.7006 31.543 11.5706 32.3192 13.0747C33.0317 14.456 35.0221 17.9556 35.7459 19.2239H34.0934L31.1155 14.346L30.6084 19.2235H27.7763H24.9442L24.4375 14.3456L21.4596 19.2235H19.8071C20.5309 17.9552 22.5209 14.4556 23.2338 13.0743ZM33.3609 19.2235H31.2367L31.5455 16.2502L33.3609 19.2235ZM24.3159 19.2235H22.1917L24.0067 16.2502L24.3159 19.2235ZM21.8105 19.8485H24.3805H27.7763H31.1717H33.7421H36.8234H37.7288V20.3247H35.7396H19.813H17.8238V19.8485H18.7296H21.8105Z" fill="black"/>
<path d="M19.1129 4.5752H3.79169V13.3056H19.1129V4.5752ZM18.4879 12.681H4.41669V5.2002H18.4879V12.681Z" fill="black"/>
</svg>
