<svg width="41" height="41" viewBox="0 0 41 41" fill="none" xmlns="http://www.w3.org/2000/svg">
<mask id="mask0_1_354" style="mask-type:alpha" maskUnits="userSpaceOnUse" x="0" y="0" width="41" height="41">
<rect x="0.333374" y="0.770874" width="40" height="40" fill="#D9D9D9"/>
</mask>
<g mask="url(#mask0_1_354)">
<path d="M30.75 23.2709V18.2709H25.75V16.6042H30.75V11.6042H32.4167V16.6042H37.4167V18.2709H32.4167V23.2709H30.75ZM15.3334 19.7453C13.9584 19.7453 12.7813 19.2557 11.8021 18.2765C10.8229 17.2974 10.3334 16.1203 10.3334 14.7453C10.3334 13.3703 10.8229 12.1932 11.8021 11.214C12.7813 10.2348 13.9584 9.74524 15.3334 9.74524C16.7084 9.74524 17.8854 10.2348 18.8646 11.214C19.8438 12.1932 20.3334 13.3703 20.3334 14.7453C20.3334 16.1203 19.8438 17.2974 18.8646 18.2765C17.8854 19.2557 16.7084 19.7453 15.3334 19.7453ZM3.66669 31.7966V29.0529C3.66669 28.3649 3.86701 27.7212 4.26765 27.1219C4.66828 26.5225 5.20728 26.0572 5.88465 25.726C7.45728 24.9718 9.03099 24.406 10.6058 24.0289C12.1806 23.6518 13.7564 23.4632 15.3334 23.4632C16.9103 23.4632 18.4861 23.6518 20.0609 24.0289C21.6357 24.406 23.2094 24.9718 24.7821 25.726C25.4594 26.0572 25.9984 26.5225 26.3991 27.1219C26.7997 27.7212 27 28.3649 27 29.0529V31.7966H3.66669ZM5.33335 30.1299H25.3334V29.0529C25.3334 28.6833 25.2142 28.3361 24.976 28.0113C24.7377 27.6865 24.4081 27.4119 23.9872 27.1876C22.6154 26.523 21.201 26.014 19.744 25.6603C18.287 25.3067 16.8168 25.1299 15.3334 25.1299C13.8499 25.1299 12.3797 25.3067 10.9227 25.6603C9.46569 26.014 8.0513 26.523 6.67952 27.1876C6.25858 27.4119 5.92898 27.6865 5.69073 28.0113C5.45248 28.3361 5.33335 28.6833 5.33335 29.0529V30.1299ZM15.3334 18.0786C16.25 18.0786 17.0347 17.7522 17.6875 17.0994C18.3403 16.4467 18.6667 15.6619 18.6667 14.7453C18.6667 13.8286 18.3403 13.0439 17.6875 12.3911C17.0347 11.7383 16.25 11.4119 15.3334 11.4119C14.4167 11.4119 13.632 11.7383 12.9792 12.3911C12.3264 13.0439 12 13.8286 12 14.7453C12 15.6619 12.3264 16.4467 12.9792 17.0994C13.632 17.7522 14.4167 18.0786 15.3334 18.0786Z" fill="#1C1B1F"/>
</g>
</svg>
