<svg width="41" height="51" viewBox="0 0 41 51" fill="none" xmlns="http://www.w3.org/2000/svg">
<path d="M36.3334 4.46752C36.337 4.41056 36.3283 4.35351 36.308 4.30018C36.2877 4.24684 36.2562 4.19847 36.2157 4.15831C36.1752 4.11815 36.1265 4.08713 36.073 4.06733C36.0195 4.04753 35.9623 4.03941 35.9054 4.04352C28.4986 4.73903 21.6341 8.22707 16.7054 13.7995L16.6734 13.6915L11.1094 15.4155C9.1166 16.0342 7.34628 17.2181 6.0134 18.8235L5.5814 19.3475C5.53593 19.4018 5.50568 19.4671 5.49372 19.5369C5.48177 19.6067 5.48854 19.6783 5.51335 19.7446C5.53816 19.8109 5.58012 19.8695 5.63494 19.9142C5.68976 19.959 5.75549 19.9884 5.8254 19.9995L11.9854 20.9915C11.3691 22.3315 10.8569 23.7169 10.4534 25.1355C10.4322 25.205 10.4303 25.2789 10.4479 25.3494C10.4655 25.4199 10.502 25.4842 10.5534 25.5355L14.8494 29.8195C14.9007 29.8709 14.9651 29.9074 15.0355 29.925C15.106 29.9426 15.1799 29.9407 15.2494 29.9195C16.6694 29.5162 18.0562 29.004 19.3974 28.3875L20.3894 34.5475C20.4005 34.6174 20.4299 34.6832 20.4747 34.738C20.5195 34.7928 20.578 34.8348 20.6443 34.8596C20.7106 34.8844 20.7823 34.8912 20.852 34.8792C20.9218 34.8672 20.9871 34.837 21.0414 34.7915L21.5654 34.3595C23.1702 33.0277 24.354 31.2589 24.9734 29.2675L26.6934 23.7195L26.5854 23.6875C32.1594 18.7526 35.6449 11.8803 36.3334 4.46752ZM6.6454 19.3155C7.8775 17.8386 9.50937 16.7484 11.3454 16.1755L15.8574 14.7675C14.4823 16.4529 13.3003 18.287 12.3334 20.2355L6.6454 19.3155ZM11.2894 25.1275C12.8869 19.7464 16.0354 14.9556 20.3411 11.3542C24.6468 7.75286 29.9186 5.50075 35.4974 4.87952C34.8762 10.4583 32.6241 15.7302 29.0227 20.0359C25.4213 24.3416 20.6306 27.49 15.2494 29.0875L11.2894 25.1275ZM24.2014 29.0275C23.6285 30.8636 22.5383 32.4954 21.0614 33.7275L20.1414 28.0435C22.0879 27.0801 23.9206 25.9021 25.6054 24.5315L24.2014 29.0275Z" fill="black"/>
<path d="M4.41337 35.6074C4.42295 35.6986 4.46353 35.7836 4.52834 35.8484C4.59314 35.9132 4.67823 35.9538 4.76937 35.9634L5.23737 36.0114C5.5032 36.0381 5.7702 36.0514 6.03737 36.0514C7.42938 36.087 8.79066 35.6389 9.88937 34.7834C10.4509 34.3124 10.912 33.7332 11.2453 33.0804C11.5786 32.4276 11.7772 31.7145 11.8294 30.9834L11.8494 30.7674C11.8548 30.7088 11.8472 30.6498 11.8271 30.5945C11.8071 30.5391 11.775 30.4889 11.7334 30.4474L9.93337 28.6394C9.89184 28.5977 9.84164 28.5657 9.78632 28.5457C9.73101 28.5256 9.67196 28.518 9.61337 28.5234L9.39737 28.5434C8.66628 28.5956 7.95314 28.7942 7.30035 29.1275C6.64755 29.4608 6.06841 29.9219 5.59737 30.4834C5.09656 31.1398 4.73029 31.8887 4.51955 32.687C4.30882 33.4853 4.25779 34.3173 4.36937 35.1354L4.41337 35.6074ZM6.20937 30.9914C6.61466 30.5124 7.11209 30.1196 7.6721 29.8365C8.23211 29.5534 8.8433 29.3857 9.46937 29.3434H9.49337L11.0334 30.8834V30.9074C10.991 31.5335 10.8234 32.1447 10.5403 32.7047C10.2572 33.2647 9.86443 33.7621 9.38537 34.1674C8.81127 34.6042 8.15569 34.9219 7.45712 35.1019C6.75855 35.2818 6.03106 35.3204 5.31737 35.2154H5.17337V35.0714C5.06477 34.3566 5.1005 33.6273 5.27844 32.9266C5.45637 32.2258 5.77291 31.5678 6.20937 30.9914Z" fill="black"/>
<path d="M27.5334 12.8436C27.0217 12.3318 26.3484 12.0133 25.6282 11.9423C24.908 11.8713 24.1855 12.0523 23.5838 12.4543C22.982 12.8563 22.5383 13.4545 22.3281 14.147C22.118 14.8395 22.1545 15.5834 22.4314 16.252C22.7082 16.9206 23.2084 17.4726 23.8466 17.8138C24.4848 18.155 25.2215 18.2643 25.9313 18.1232C26.6411 17.9821 27.28 17.5992 27.7391 17.0399C28.1983 16.4805 28.4493 15.7793 28.4494 15.0556C28.4505 14.6446 28.3701 14.2375 28.2129 13.8578C28.0557 13.4782 27.8247 13.1334 27.5334 12.8436ZM26.9694 16.6996C26.5881 17.0799 26.0868 17.3162 25.5509 17.3684C25.0149 17.4205 24.4775 17.2853 24.03 16.9857C23.5826 16.686 23.2529 16.2406 23.097 15.7252C22.9412 15.2097 22.9688 14.6562 23.1752 14.1589C23.3816 13.6615 23.7541 13.2511 24.2291 12.9976C24.7041 12.744 25.2524 12.663 25.7805 12.7682C26.3086 12.8735 26.7838 13.1586 27.1253 13.5749C27.4668 13.9913 27.6534 14.5131 27.6534 15.0516C27.6531 15.3596 27.5918 15.6646 27.4731 15.9488C27.3543 16.2331 27.1804 16.4909 26.9614 16.7076L26.9694 16.6996Z" fill="black"/>
</svg>
