<svg width="41" height="51" viewBox="0 0 41 51" fill="none" xmlns="http://www.w3.org/2000/svg">
<path d="M34.3691 38.6179H6.33988C5.67971 38.6179 5.14313 38.0805 5.14313 37.4195V30.6415C5.14313 28.4317 6.53418 26.4309 8.6041 25.6626C8.61061 25.6602 8.6163 25.6585 8.6228 25.6561L16.3773 23.1463V20.5447C16.3773 20.2862 16.587 20.0764 16.8456 20.0764C17.1041 20.0764 17.3139 20.2862 17.3139 20.5447V23.4764C17.3147 23.5106 17.3114 23.5439 17.3057 23.5764C17.2927 23.6447 17.2643 23.7081 17.2244 23.7626C17.1846 23.8171 17.1326 23.8642 17.0716 23.8976C17.0431 23.9138 17.0122 23.926 16.9797 23.9358L8.92118 26.5447C7.22118 27.1797 6.07971 28.8252 6.07971 30.6423V37.4203C6.07971 37.565 6.19679 37.6821 6.33988 37.6821H34.37C34.5139 37.6821 34.6301 37.5642 34.6301 37.4203V30.6423C34.6301 28.8252 33.4887 27.1797 31.7887 26.5447L23.7293 23.9374C23.6968 23.9276 23.6667 23.9146 23.6374 23.8992C23.5756 23.865 23.5236 23.8187 23.4846 23.7642C23.4448 23.7097 23.4171 23.6471 23.4041 23.578C23.3976 23.5455 23.3952 23.5122 23.396 23.478V20.5545C23.396 20.2959 23.6057 20.0862 23.8643 20.0862C24.1228 20.0862 24.3326 20.2959 24.3326 20.5545V23.148L32.087 25.6569C32.0935 25.6593 32.0992 25.661 32.1057 25.6634C34.1765 26.4317 35.5675 28.4325 35.5675 30.6423V37.4203C35.5667 38.0805 35.0293 38.6179 34.3691 38.6179Z" fill="black"/>
<path d="M20.3545 28.0049C20.2187 28.0049 20.0895 27.9455 20.0008 27.8431L16.4919 23.7935C16.3228 23.5984 16.3439 23.3024 16.539 23.1325C16.7342 22.9634 17.0301 22.9845 17.2 23.1797L20.3545 26.8203L23.509 23.1805C23.6781 22.9854 23.974 22.9642 24.1699 23.1333C24.3651 23.3024 24.3862 23.5984 24.2171 23.7943L20.7082 27.8431C20.6195 27.9463 20.4903 28.0049 20.3545 28.0049Z" fill="black"/>
<path d="M29.9139 33.9089H29.0196C28.7602 33.9089 28.5496 33.6983 28.5496 33.439C28.5496 33.1796 28.7602 32.9691 29.0196 32.9691H29.4431V31.6512C29.4431 30.678 28.6513 29.8861 27.6781 29.8861C26.7049 29.8861 25.9131 30.678 25.9131 31.6512V32.9691H26.3366C26.596 32.9691 26.8066 33.1796 26.8066 33.439C26.8066 33.6983 26.596 33.9089 26.3366 33.9089H25.4423C25.183 33.9089 24.9724 33.6983 24.9724 33.439V31.6512C24.9724 30.1593 26.1862 28.9463 27.6773 28.9463C29.1683 28.9463 30.3822 30.1601 30.3822 31.6512V33.439C30.3846 33.6983 30.174 33.9089 29.9139 33.9089Z" fill="black"/>
<path d="M27.6789 29.8861C27.4196 29.8861 27.209 29.6756 27.209 29.4162V24.7227C27.209 24.4634 27.4196 24.2528 27.6789 24.2528C27.9383 24.2528 28.1488 24.4634 28.1488 24.7227V29.4162C28.1488 29.6756 27.9383 29.8861 27.6789 29.8861Z" fill="black"/>
<path d="M12.583 30.1935C12.3236 30.1935 12.113 29.9829 12.113 29.7236V24.8666C12.113 24.6073 12.3236 24.3967 12.583 24.3967C12.8423 24.3967 13.0529 24.6073 13.0529 24.8666V29.7236C13.0529 29.9829 12.8423 30.1935 12.583 30.1935Z" fill="black"/>
<path d="M12.5829 33.7699C11.3374 33.7699 10.3244 32.7569 10.3244 31.5113C10.3244 30.2658 11.3374 29.2528 12.5829 29.2528C13.8285 29.2528 14.8415 30.2658 14.8415 31.5113C14.8415 32.7569 13.8285 33.7699 12.5829 33.7699ZM12.5829 30.1935C11.8561 30.1935 11.2651 30.7845 11.2651 31.5113C11.2651 32.2382 11.8561 32.8292 12.5829 32.8292C13.3098 32.8292 13.9008 32.2382 13.9008 31.5113C13.9008 30.7845 13.3098 30.1935 12.5829 30.1935Z" fill="black"/>
<path d="M27.2228 12.9731C27.1602 12.9731 27.0968 12.9601 27.0358 12.9341C26.7984 12.8308 26.6911 12.5544 26.7943 12.317C27.7269 10.1853 28.613 6.30726 24.0708 4.29263C22.4415 3.56905 20.635 3.33165 18.8472 3.60645C16.6163 3.95035 13.9195 4.99588 13.7472 8.02108C13.7423 8.10482 13.7155 8.18531 13.6691 8.25442C13.6277 8.35279 13.0683 9.8032 13.9204 11.9276C14.0163 12.1674 13.9 12.4406 13.6602 12.5365C13.4204 12.6325 13.1472 12.5162 13.0512 12.2764C12.1976 10.1487 12.5537 8.44466 12.8187 7.86824C12.9366 6.25442 13.6586 4.97068 14.9659 4.05198C15.9269 3.37718 17.1854 2.91539 18.7049 2.68125C20.6708 2.37962 22.6578 2.64141 24.4512 3.43734C29.9317 5.86824 28.5163 10.7203 27.6537 12.6934C27.5756 12.8682 27.4033 12.9731 27.2228 12.9731ZM13.6626 8.26255C13.6569 8.26986 13.6512 8.27799 13.6456 8.28531C13.6496 8.27962 13.6561 8.2723 13.6626 8.26255Z" fill="black"/>
<path d="M20.3545 21.9967C16.309 21.9967 13.0171 18.7048 13.0171 14.6593V12.1007C13.0171 11.8422 13.2268 11.6324 13.4854 11.6324C13.7439 11.6324 13.9537 11.8422 13.9537 12.1007V14.6593C13.9537 18.1885 16.8252 21.0601 20.3545 21.0601C23.8838 21.0601 26.7553 18.1885 26.7553 14.6593V12.5048C26.7553 12.2463 26.9651 12.0365 27.2236 12.0365C27.4821 12.0365 27.6919 12.2463 27.6919 12.5048V14.6593C27.6919 18.7048 24.4 21.9967 20.3545 21.9967Z" fill="black"/>
<path d="M27.2236 12.9731C27.2228 12.9731 27.222 12.9731 27.2211 12.9731C23.326 12.9519 19.1561 10.3796 17.7634 9.44136C16.7553 11.3828 14.5748 12.2519 13.6252 12.5487C13.3781 12.6259 13.1155 12.4885 13.0382 12.2414C12.961 11.9942 13.0984 11.7316 13.3455 11.6544C14.0488 11.4349 16.4 10.5633 17.1244 8.57144C17.1748 8.43242 17.2878 8.32592 17.4285 8.28364C17.5699 8.24055 17.7228 8.26738 17.8415 8.35437C17.8911 8.39096 22.8699 12.0129 27.226 12.0365C27.4846 12.0381 27.6935 12.2487 27.6919 12.5072C27.6903 12.7649 27.4805 12.9731 27.2236 12.9731Z" fill="black"/>
<path d="M13.6537 16.6357C13.6358 16.6357 13.6179 16.6349 13.6 16.6325C13.5862 16.6308 13.5578 16.6292 13.5269 16.6268C13.4179 16.6178 13.396 16.6162 13.37 16.6121C12.2504 16.4276 11.4374 15.4682 11.4374 14.3308C11.4374 13.752 11.6521 13.1999 12.0407 12.7739C12.1033 12.7056 12.1683 12.6422 12.235 12.5837C12.5708 12.2918 12.9797 12.104 13.4179 12.0414C13.674 12.0048 13.9114 12.1821 13.948 12.4382C13.9846 12.6943 13.8074 12.9316 13.5513 12.9682C13.2911 13.0056 13.048 13.117 12.8488 13.2902C12.8082 13.326 12.7691 13.3642 12.7301 13.4064C12.5 13.6585 12.3724 13.9861 12.3724 14.33C12.3724 15.0024 12.8496 15.5707 13.509 15.6853C13.5293 15.6869 13.5659 15.6902 13.6009 15.6926C13.6553 15.6967 13.7049 15.7016 13.7147 15.7032C13.9708 15.7382 14.1504 15.9739 14.1163 16.23C14.0854 16.465 13.8846 16.6357 13.6537 16.6357Z" fill="black"/>
<path d="M27.0505 16.6544C26.8196 16.6544 26.6188 16.4837 26.5871 16.2487C26.5521 15.9926 26.7318 15.7568 26.9887 15.7219C27.0196 15.717 27.1822 15.6885 27.2041 15.6845C27.8594 15.5674 28.335 14.9983 28.335 14.3308C28.335 13.9869 28.2082 13.6585 27.9773 13.4064C27.9383 13.3642 27.8992 13.3259 27.8586 13.2902C27.6594 13.117 27.4171 13.0056 27.157 12.9682C26.9009 12.9308 26.7236 12.6934 26.7602 12.4381C26.7968 12.1829 27.035 12.0048 27.2911 12.0414C27.7293 12.1048 28.1383 12.2926 28.474 12.5837C28.5407 12.6422 28.6066 12.7056 28.6683 12.7739C29.0578 13.1999 29.2724 13.7528 29.2724 14.3308C29.2724 15.4528 28.4724 16.4105 27.3692 16.6072C27.3423 16.6121 27.1423 16.6471 27.1155 16.6511C27.0927 16.6528 27.0716 16.6544 27.0505 16.6544Z" fill="black"/>
</svg>
