<svg width="41" height="51" viewBox="0 0 41 51" fill="none" xmlns="http://www.w3.org/2000/svg">
<path d="M10.8373 24.5455C10.3413 24.5455 9.85642 24.6926 9.44398 24.9682C9.03154 25.2438 8.71008 25.6355 8.52026 26.0938C8.33043 26.552 8.28077 27.0563 8.37754 27.5428C8.47431 28.0293 8.71317 28.4762 9.06392 28.827C9.41467 29.1777 9.86156 29.4166 10.3481 29.5133C10.8346 29.6101 11.3388 29.5604 11.7971 29.3706C12.2554 29.1808 12.6471 28.8593 12.9227 28.4469C13.1983 28.0345 13.3453 27.5496 13.3453 27.0535C13.3443 26.3887 13.0797 25.7514 12.6096 25.2813C12.1395 24.8112 11.5022 24.5466 10.8373 24.5455ZM10.8373 28.7655C10.4995 28.7655 10.1693 28.6654 9.88843 28.4777C9.60755 28.29 9.38864 28.0233 9.25936 27.7112C9.13009 27.3991 9.09626 27.0556 9.16217 26.7243C9.22807 26.393 9.39074 26.0887 9.62961 25.8498C9.86848 25.6109 10.1728 25.4483 10.5041 25.3824C10.8355 25.3164 11.1789 25.3503 11.491 25.4795C11.8031 25.6088 12.0698 25.8277 12.2575 26.1086C12.4452 26.3895 12.5453 26.7197 12.5453 27.0575C12.5443 27.5102 12.364 27.944 12.0439 28.2641C11.7238 28.5842 11.29 28.7645 10.8373 28.7655Z" fill="black"/>
<path d="M10.8414 29.7295C10.0344 29.7306 9.26073 30.0516 8.6901 30.6222C8.11947 31.1929 7.79842 31.9665 7.79736 32.7735V33.9735C7.79736 34.0796 7.83951 34.1813 7.91452 34.2563C7.98953 34.3313 8.09128 34.3735 8.19736 34.3735C8.30345 34.3735 8.40519 34.3313 8.48021 34.2563C8.55522 34.1813 8.59736 34.0796 8.59736 33.9735V32.7735C8.59736 32.4785 8.65546 32.1865 8.76833 31.914C8.8812 31.6415 9.04664 31.3939 9.2552 31.1853C9.46376 30.9768 9.71136 30.8113 9.98386 30.6985C10.2564 30.5856 10.5484 30.5275 10.8434 30.5275C11.1383 30.5275 11.4304 30.5856 11.7029 30.6985C11.9754 30.8113 12.223 30.9768 12.4315 31.1853C12.6401 31.3939 12.8055 31.6415 12.9184 31.914C13.0313 32.1865 13.0894 32.4785 13.0894 32.7735V33.9735C13.0894 34.0796 13.1315 34.1813 13.2065 34.2563C13.2815 34.3313 13.3833 34.3735 13.4894 34.3735C13.5954 34.3735 13.6972 34.3313 13.7722 34.2563C13.8472 34.1813 13.8894 34.0796 13.8894 33.9735V32.7735C13.8883 31.9658 13.5667 31.1916 12.9952 30.6208C12.4237 30.0501 11.6491 29.7295 10.8414 29.7295Z" fill="black"/>
<path d="M14.9214 27.0535C14.9214 27.5496 15.0685 28.0345 15.3441 28.4469C15.6196 28.8593 16.0113 29.1808 16.4696 29.3706C16.9279 29.5604 17.4322 29.6101 17.9187 29.5133C18.4052 29.4166 18.8521 29.1777 19.2028 28.827C19.5536 28.4762 19.7924 28.0293 19.8892 27.5428C19.986 27.0563 19.9363 26.552 19.7465 26.0938C19.5567 25.6355 19.2352 25.2438 18.8228 24.9682C18.4103 24.6926 17.9254 24.5455 17.4294 24.5455C16.7645 24.5466 16.1272 24.8112 15.6571 25.2813C15.187 25.7514 14.9224 26.3887 14.9214 27.0535ZM19.1414 27.0535C19.1414 27.3913 19.0412 27.7216 18.8535 28.0024C18.6659 28.2833 18.3991 28.5022 18.087 28.6315C17.7749 28.7608 17.4315 28.7946 17.1002 28.7287C16.7689 28.6628 16.4645 28.5001 16.2256 28.2613C15.9868 28.0224 15.8241 27.7181 15.7582 27.3867C15.6923 27.0554 15.7261 26.712 15.8554 26.3999C15.9847 26.0878 16.2036 25.8211 16.4845 25.6334C16.7654 25.4457 17.0956 25.3455 17.4334 25.3455C17.8847 25.3487 18.3164 25.5299 18.6348 25.8498C18.9532 26.1696 19.1323 26.6022 19.1334 27.0535H19.1414Z" fill="black"/>
<path d="M17.4374 29.7295C16.6304 29.7306 15.8567 30.0516 15.2861 30.6222C14.7155 31.1929 14.3944 31.9665 14.3934 32.7735V33.9735C14.3934 34.0796 14.4355 34.1813 14.5105 34.2563C14.5855 34.3313 14.6873 34.3735 14.7934 34.3735C14.8995 34.3735 15.0012 34.3313 15.0762 34.2563C15.1512 34.1813 15.1934 34.0796 15.1934 33.9735V32.7735C15.1934 32.4785 15.2515 32.1865 15.3643 31.914C15.4772 31.6415 15.6426 31.3939 15.8512 31.1853C16.0598 30.9768 16.3074 30.8113 16.5799 30.6985C16.8524 30.5856 17.1444 30.5275 17.4394 30.5275C17.7343 30.5275 18.0264 30.5856 18.2989 30.6985C18.5714 30.8113 18.819 30.9768 19.0275 31.1853C19.2361 31.3939 19.4015 31.6415 19.5144 31.914C19.6273 32.1865 19.6854 32.4785 19.6854 32.7735V33.9735C19.6854 34.0796 19.7275 34.1813 19.8025 34.2563C19.8775 34.3313 19.9793 34.3735 20.0854 34.3735C20.1915 34.3735 20.2932 34.3313 20.3682 34.2563C20.4432 34.1813 20.4854 34.0796 20.4854 33.9735V32.7735C20.4843 31.9658 20.1627 31.1916 19.5912 30.6208C19.0197 30.0501 18.2451 29.7295 17.4374 29.7295Z" fill="black"/>
<path d="M21.5334 27.0535C21.5334 27.5496 21.6805 28.0345 21.9561 28.4469C22.2316 28.8593 22.6233 29.1808 23.0816 29.3706C23.5399 29.5604 24.0442 29.6101 24.5307 29.5133C25.0172 29.4166 25.4641 29.1777 25.8148 28.827C26.1656 28.4762 26.4044 28.0293 26.5012 27.5428C26.598 27.0563 26.5483 26.552 26.3585 26.0938C26.1687 25.6355 25.8472 25.2438 25.4348 24.9682C25.0223 24.6926 24.5374 24.5455 24.0414 24.5455C23.3765 24.5466 22.7392 24.8112 22.2691 25.2813C21.799 25.7514 21.5344 26.3887 21.5334 27.0535ZM25.7534 27.0535C25.7534 27.3913 25.6532 27.7216 25.4655 28.0024C25.2779 28.2833 25.0111 28.5022 24.699 28.6315C24.3869 28.7608 24.0435 28.7946 23.7122 28.7287C23.3809 28.6628 23.0765 28.5001 22.8376 28.2613C22.5988 28.0224 22.4361 27.7181 22.3702 27.3867C22.3043 27.0554 22.3381 26.712 22.4674 26.3999C22.5967 26.0878 22.8156 25.8211 23.0965 25.6334C23.3774 25.4457 23.7076 25.3455 24.0454 25.3455C24.4953 25.3508 24.925 25.5329 25.2416 25.8526C25.5583 26.1722 25.7364 26.6036 25.7374 27.0535H25.7534Z" fill="black"/>
<path d="M24.0294 29.7295C23.2224 29.7306 22.4487 30.0516 21.8781 30.6222C21.3075 31.1929 20.9864 31.9665 20.9854 32.7735V33.9735C20.9854 34.0796 21.0275 34.1813 21.1025 34.2563C21.1775 34.3313 21.2793 34.3735 21.3854 34.3735C21.4914 34.3735 21.5932 34.3313 21.6682 34.2563C21.7432 34.1813 21.7854 34.0796 21.7854 33.9735V32.7735C21.7854 32.1778 22.022 31.6065 22.4432 31.1853C22.8644 30.7641 23.4357 30.5275 24.0314 30.5275C24.627 30.5275 25.1983 30.7641 25.6195 31.1853C26.0407 31.6065 26.2774 32.1778 26.2774 32.7735V33.9735C26.2774 34.0796 26.3195 34.1813 26.3945 34.2563C26.4695 34.3313 26.5713 34.3735 26.6774 34.3735C26.7834 34.3735 26.8852 34.3313 26.9602 34.2563C27.0352 34.1813 27.0774 34.0796 27.0774 33.9735V32.7735C27.0763 31.9658 26.7547 31.1916 26.1832 30.6208C25.6117 30.0501 24.837 29.7295 24.0294 29.7295Z" fill="black"/>
<path d="M28.1134 27.0535C28.1134 27.5496 28.2605 28.0345 28.5361 28.4469C28.8117 28.8593 29.2034 29.1808 29.6616 29.3706C30.1199 29.5604 30.6242 29.6101 31.1107 29.5133C31.5972 29.4166 32.0441 29.1777 32.3948 28.827C32.7456 28.4762 32.9844 28.0293 33.0812 27.5428C33.178 27.0563 33.1283 26.552 32.9385 26.0938C32.7487 25.6355 32.4272 25.2438 32.0148 24.9682C31.6023 24.6926 31.1174 24.5455 30.6214 24.5455C29.9566 24.5466 29.3193 24.8112 28.8491 25.2813C28.379 25.7514 28.1145 26.3887 28.1134 27.0535ZM32.3334 27.0535C32.3334 27.3913 32.2332 27.7216 32.0456 28.0024C31.8579 28.2833 31.5911 28.5022 31.279 28.6315C30.9669 28.7608 30.6235 28.7946 30.2922 28.7287C29.9609 28.6628 29.6565 28.5001 29.4177 28.2613C29.1788 28.0224 29.0161 27.7181 28.9502 27.3867C28.8843 27.0554 28.9181 26.712 29.0474 26.3999C29.1767 26.0878 29.3956 25.8211 29.6765 25.6334C29.9574 25.4457 30.2876 25.3455 30.6254 25.3455C31.0781 25.3466 31.5119 25.5269 31.832 25.847C32.1521 26.167 32.3323 26.6009 32.3334 27.0535Z" fill="black"/>
<path d="M30.6254 29.7295C29.8184 29.7306 29.0447 30.0516 28.4741 30.6222C27.9035 31.1929 27.5824 31.9665 27.5814 32.7735V33.9735C27.5814 34.0796 27.6235 34.1813 27.6985 34.2563C27.7735 34.3313 27.8753 34.3735 27.9814 34.3735C28.0874 34.3735 28.1892 34.3313 28.2642 34.2563C28.3392 34.1813 28.3814 34.0796 28.3814 33.9735V32.7735C28.3814 32.1778 28.618 31.6065 29.0392 31.1853C29.4604 30.7641 30.0317 30.5275 30.6274 30.5275C31.223 30.5275 31.7943 30.7641 32.2155 31.1853C32.6367 31.6065 32.8734 32.1778 32.8734 32.7735V33.9735C32.8734 34.0796 32.9155 34.1813 32.9905 34.2563C33.0655 34.3313 33.1673 34.3735 33.2734 34.3735C33.3794 34.3735 33.4812 34.3313 33.5562 34.2563C33.6312 34.1813 33.6734 34.0796 33.6734 33.9735V32.7735C33.6723 31.9658 33.3507 31.1916 32.7792 30.6208C32.2077 30.0501 31.433 29.7295 30.6254 29.7295Z" fill="black"/>
<path d="M7.79335 22.4375C7.79664 21.9988 7.92847 21.5707 8.17252 21.2061C8.41657 20.8415 8.76214 20.5565 9.16648 20.3862C9.57083 20.216 10.0162 20.168 10.4475 20.2482C10.8789 20.3284 11.2772 20.5333 11.5933 20.8375C11.8071 21.0456 11.977 21.2944 12.0931 21.5692C12.2092 21.844 12.2691 22.1392 12.2693 22.4375V23.6375C12.2693 23.7436 12.3115 23.8453 12.3865 23.9203C12.4615 23.9954 12.5633 24.0375 12.6693 24.0375C12.7754 24.0375 12.8772 23.9954 12.9522 23.9203C13.0272 23.8453 13.0693 23.7436 13.0693 23.6375V22.4375C13.0674 21.9139 12.9296 21.3998 12.6693 20.9455H31.4293C31.5354 20.9455 31.6372 20.9034 31.7122 20.8283C31.7872 20.7533 31.8293 20.6516 31.8293 20.5455V6.8895C31.8293 6.78341 31.7872 6.68167 31.7122 6.60666C31.6372 6.53164 31.5354 6.4895 31.4293 6.4895H10.0173C9.91126 6.4895 9.80952 6.53164 9.7345 6.60666C9.65949 6.68167 9.61735 6.78341 9.61735 6.8895V14.2655C8.99391 14.3661 8.43122 14.6977 8.04133 15.1945C7.65143 15.6912 7.46293 16.3166 7.51337 16.9461C7.56381 17.5756 7.84949 18.1629 8.31351 18.5913C8.77753 19.0196 9.38586 19.2574 10.0173 19.2574C10.6488 19.2574 11.2572 19.0196 11.7212 18.5913C12.1852 18.1629 12.4709 17.5756 12.5213 16.9461C12.5718 16.3166 12.3833 15.6912 11.9934 15.1945C11.6035 14.6977 11.0408 14.3661 10.4173 14.2655V7.2895H31.0493V20.1655H12.0373C11.5989 19.7811 11.0591 19.5309 10.4824 19.4448C9.90575 19.3586 9.31645 19.4402 8.7848 19.6796C8.25315 19.9191 7.80159 20.3064 7.48396 20.7954C7.16632 21.2844 6.99602 21.8544 6.99335 22.4375V23.6375C6.99335 23.7436 7.03549 23.8453 7.1105 23.9203C7.18552 23.9954 7.28726 24.0375 7.39335 24.0375C7.49943 24.0375 7.60118 23.9954 7.67619 23.9203C7.7512 23.8453 7.79335 23.7436 7.79335 23.6375V22.4375ZM11.7453 16.7175C11.7453 17.0553 11.6452 17.3855 11.4575 17.6664C11.2698 17.9473 11.0031 18.1662 10.691 18.2955C10.3789 18.4248 10.0355 18.4586 9.70413 18.3927C9.37281 18.3268 9.06848 18.1641 8.82961 17.9252C8.59074 17.6864 8.42807 17.382 8.36217 17.0507C8.29626 16.7194 8.33009 16.376 8.45936 16.0639C8.58864 15.7518 8.80755 15.485 9.08843 15.2974C9.36931 15.1097 9.69954 15.0095 10.0373 15.0095C10.2632 15.01 10.4867 15.0552 10.695 15.1425C10.9033 15.2298 11.0923 15.3574 11.251 15.518C11.4098 15.6786 11.5352 15.8691 11.62 16.0784C11.7049 16.2877 11.7475 16.5117 11.7453 16.7375V16.7175Z" fill="black"/>
</svg>
