<svg width="41" height="50" viewBox="0 0 41 50" fill="none" xmlns="http://www.w3.org/2000/svg">
<path d="M26.7552 23.7714H26.2936V23.2458C26.2936 23.118 26.2126 23.0044 26.0918 22.9617V22.5555C26.0918 22.2174 25.8177 21.9447 25.4796 21.9433H24.7112C24.3731 21.9447 24.0989 22.2174 24.0989 22.5555V22.9617C23.9782 23.0044 23.8972 23.118 23.8972 23.2458V32.8011C23.8972 32.8139 23.8987 32.8253 23.9015 32.838C23.9015 32.8466 23.9015 32.8551 23.9058 32.8636C23.91 32.8721 23.9114 32.8806 23.9143 32.8892H23.9129C23.9157 32.9005 23.92 32.9105 23.9242 32.9204V32.9247L24.8191 34.8451V34.8465C24.8688 34.9531 24.9753 35.0213 25.0932 35.0213C25.2111 35.0213 25.3177 34.9531 25.3674 34.8465L26.2623 32.9261V32.9218L26.2637 32.9204C26.2679 32.9105 26.2708 32.9005 26.275 32.8892C26.2779 32.8806 26.2807 32.8721 26.2836 32.8636C26.285 32.8551 26.2864 32.8466 26.2878 32.838H26.2864C26.2878 32.8253 26.2893 32.8139 26.2893 32.8011V26.4062H26.7523C27.1657 26.4062 27.5023 26.0695 27.5023 25.6562V24.5213C27.5023 24.1093 27.1685 23.7742 26.7552 23.7714ZM24.5009 28.3539C24.6558 28.192 24.8702 28.1011 25.0947 28.1011C25.3177 28.1011 25.5322 28.192 25.687 28.3539V32.4947H24.5009V28.3539ZM25.0933 27.496H25.0947C24.8887 27.496 24.687 27.54 24.5009 27.6267V23.5485H25.687V27.6281C25.5024 27.5429 25.3006 27.4974 25.0975 27.4974L25.0933 27.496ZM24.7041 22.5556C24.7041 22.5528 24.7069 22.5499 24.7112 22.5485H25.4796C25.4825 22.5499 25.4853 22.5528 25.4867 22.5556V22.9434H24.7041L24.7041 22.5556ZM25.0975 34.0018L24.6742 33.0998H25.5151L25.0975 34.0018ZM26.9029 25.6567C26.9029 25.6951 26.8873 25.732 26.8603 25.759C26.8319 25.786 26.7949 25.8016 26.7566 25.8016H26.2935V24.3769H26.7566H26.7552C26.7949 24.3769 26.8319 24.3925 26.8589 24.4195C26.8859 24.4465 26.9015 24.4834 26.9015 24.5232L26.9029 25.6567ZM10.6487 19.0643L10.6473 19.0629C10.6473 18.1766 11.1799 17.3783 11.9981 17.0359C12.8149 16.695 13.7581 16.8769 14.3888 17.5004C14.5081 17.6169 14.5081 17.8087 14.3916 17.928C14.2737 18.0473 14.0819 18.0473 13.9626 17.9308C13.5123 17.4848 12.8405 17.3484 12.2524 17.5856C11.6629 17.8214 11.2709 18.3839 11.2538 19.0175C11.2353 19.651 11.5947 20.2348 12.1686 20.5032C12.7424 20.7731 13.4214 20.6751 13.8973 20.2561C13.9569 20.1978 14.0365 20.168 14.1189 20.1709C14.2027 20.1737 14.2794 20.2106 14.3348 20.2731C14.3887 20.3342 14.4157 20.4166 14.4086 20.499C14.4015 20.5814 14.3618 20.6581 14.2964 20.7092C13.6501 21.2816 12.7268 21.4223 11.9384 21.0672C11.1501 20.7121 10.6444 19.928 10.6444 19.0643L10.6487 19.0643ZM15.2865 17.8896C15.3377 17.9507 15.3618 18.0302 15.3547 18.1098C15.3476 18.1908 15.3093 18.2646 15.2482 18.3158L13.038 20.1595C12.9201 20.2575 12.7482 20.2518 12.6374 20.1467L11.7553 19.3172C11.6331 19.2021 11.6274 19.0104 11.7425 18.8896C11.8575 18.7675 12.0493 18.7618 12.1701 18.8768L12.8561 19.5231L14.8604 17.8498V17.8512C14.9215 17.7987 15.001 17.7745 15.0806 17.7816C15.1615 17.7887 15.2354 17.8271 15.2865 17.8896ZM16.4968 17.8896C16.4968 17.722 16.6317 17.5871 16.7993 17.5871H22.6869C22.8546 17.5871 22.9895 17.722 22.9895 17.8896C22.9895 18.0572 22.8546 18.1922 22.6869 18.1922H16.7993C16.7183 18.1922 16.6416 18.1595 16.5848 18.1027C16.528 18.0459 16.4968 17.9692 16.4968 17.8896ZM16.4968 19.3299C16.4968 19.1623 16.6317 19.0274 16.7993 19.0274H22.6869C22.8546 19.0274 22.9895 19.1623 22.9895 19.3299C22.9895 19.4976 22.8546 19.6325 22.6869 19.6325H16.7993C16.7183 19.6325 16.6416 19.5998 16.5848 19.543C16.528 19.4862 16.4968 19.4095 16.4968 19.3299ZM16.7993 20.4677H26.7964C26.9626 20.4677 27.099 20.6027 27.099 20.7703C27.099 20.9379 26.9626 21.0728 26.7964 21.0728H16.7993C16.6317 21.0728 16.4968 20.9379 16.4968 20.7703C16.4968 20.6027 16.6317 20.4677 16.7993 20.4677ZM10.6473 25.7775L10.6459 25.7761C10.6459 24.8912 11.1785 24.0915 11.9967 23.7491C12.8135 23.4082 13.7567 23.59 14.3873 24.2136C14.5067 24.3301 14.5067 24.5219 14.3902 24.6412C14.2723 24.7605 14.0805 24.7605 13.9612 24.644C13.5109 24.198 12.8391 24.063 12.2496 24.2988C11.6615 24.5346 11.2695 25.0986 11.2524 25.7321C11.2354 26.3656 11.5947 26.9494 12.1686 27.2179C12.7424 27.4863 13.4214 27.3883 13.8973 26.9693C13.9569 26.911 14.0365 26.8798 14.1189 26.8841C14.2027 26.8869 14.2794 26.9238 14.3348 26.9863C14.3888 27.0474 14.4157 27.1298 14.4086 27.2122C14.4015 27.2946 14.3618 27.3699 14.2964 27.4224C13.6501 27.9948 12.7268 28.1355 11.9385 27.7804C11.1501 27.4253 10.6444 26.6412 10.6444 25.7775L10.6473 25.7775ZM15.2866 24.6028C15.3377 24.6639 15.3619 24.7434 15.3548 24.8244C15.3477 24.904 15.3093 24.9778 15.2482 25.029L13.038 26.8741C12.9201 26.9721 12.7482 26.9664 12.6374 26.8613L11.7553 26.0304C11.6332 25.9153 11.6275 25.7235 11.7425 25.6028C11.8576 25.4806 12.0494 25.4749 12.1701 25.59L12.8562 26.2363L14.8604 24.563V24.5644C14.9215 24.5119 15.0011 24.4877 15.0806 24.4948C15.1616 24.5019 15.2354 24.5417 15.2866 24.6028ZM22.9782 24.6028C22.9782 24.6824 22.9455 24.7605 22.8901 24.8173C22.8333 24.8741 22.7552 24.9054 22.6757 24.9054H16.7993C16.6317 24.9054 16.4967 24.7704 16.4967 24.6028C16.4967 24.4352 16.6317 24.3003 16.7993 24.3003H22.6757C22.7552 24.3003 22.8319 24.3315 22.8887 24.3883C22.9455 24.4451 22.9782 24.5219 22.9782 24.6028ZM22.9782 26.0431C22.9782 26.1227 22.9455 26.2008 22.8901 26.2576C22.8333 26.3144 22.7552 26.3457 22.6757 26.3457H16.7993C16.6317 26.3457 16.4967 26.2108 16.4967 26.0431C16.4967 25.8755 16.6317 25.7406 16.7993 25.7406H22.6757C22.7552 25.7406 22.8319 25.7718 22.8887 25.8287C22.9455 25.8855 22.9782 25.9622 22.9782 26.0431ZM22.9782 27.4835C22.9782 27.563 22.9455 27.6411 22.8901 27.698C22.8333 27.7548 22.7552 27.786 22.6757 27.786H16.7993C16.6317 27.786 16.4967 27.6511 16.4967 27.4835C16.4967 27.3159 16.6317 27.1809 16.7993 27.1809H22.6757C22.7552 27.1809 22.8319 27.2122 22.8887 27.269C22.9455 27.3258 22.9782 27.4025 22.9782 27.4835ZM14.3262 33.7078C14.3788 33.7675 14.4058 33.847 14.4015 33.9266C14.3958 34.0075 14.3603 34.0814 14.2992 34.1354C13.6444 34.715 12.7069 34.8513 11.9143 34.4806C11.1217 34.1098 10.6231 33.3044 10.6472 32.4294C10.6714 31.5545 11.2126 30.7774 12.0237 30.4507C12.8362 30.1255 13.7652 30.3115 14.3873 30.9266C14.5066 31.0445 14.508 31.2363 14.3901 31.3542C14.2722 31.4735 14.0805 31.4749 13.9626 31.357C13.5109 30.9124 12.839 30.776 12.2495 31.0133C11.6615 31.249 11.2694 31.813 11.2524 32.4465C11.2353 33.08 11.5961 33.6638 12.17 33.9323C12.7452 34.2007 13.4242 34.1013 13.8987 33.6823C13.9583 33.6283 14.0379 33.6013 14.1174 33.6056C14.1969 33.6112 14.2722 33.6482 14.3262 33.7078ZM15.2864 31.3158C15.3376 31.3769 15.3617 31.4564 15.3546 31.5374C15.3475 31.6169 15.3092 31.6908 15.2481 31.7419L13.0379 33.5857C12.92 33.6837 12.7481 33.678 12.6373 33.5743L11.7552 32.7433C11.633 32.6283 11.6273 32.4365 11.7424 32.3158C11.8574 32.1936 12.0492 32.1879 12.17 32.303L12.856 32.9493L14.8603 31.276V31.2774C14.9214 31.2248 15.0009 31.2007 15.0805 31.2078C15.1614 31.2149 15.2353 31.2547 15.2864 31.3158ZM22.9781 31.3158C22.9781 31.3953 22.9454 31.4735 22.89 31.5303C22.8332 31.5871 22.7551 31.6184 22.6755 31.6184H16.7992C16.6315 31.6184 16.4966 31.4834 16.4966 31.3158C16.4966 31.1482 16.6315 31.0132 16.7992 31.0132H22.6755C22.7551 31.0132 22.8318 31.0445 22.8886 31.1013C22.9454 31.1581 22.9781 31.2348 22.9781 31.3158ZM22.9781 32.7561C22.9781 32.8357 22.9454 32.9138 22.89 32.9706C22.8332 33.0274 22.7551 33.0587 22.6755 33.0587H16.7992C16.6315 33.0587 16.4966 32.9237 16.4966 32.7561C16.4966 32.5885 16.6315 32.4536 16.7992 32.4536H22.6755C22.7551 32.4536 22.8318 32.4848 22.8886 32.5416C22.9454 32.5985 22.9781 32.6752 22.9781 32.7561ZM22.9781 34.1965C22.9781 34.2774 22.9454 34.3541 22.89 34.4109C22.8332 34.4678 22.7551 34.499 22.6755 34.499H16.7992C16.6315 34.499 16.4966 34.3641 16.4966 34.1965C16.4966 34.0288 16.6315 33.8939 16.7992 33.8939H22.6755C22.7551 33.8939 22.8318 33.9251 22.8886 33.982C22.9454 34.0388 22.9781 34.1155 22.9781 34.1965ZM31.5137 7.30591H12.0733C11.9072 7.30591 11.7708 7.44085 11.7708 7.60846V10.3542H9.1529C8.98528 10.3542 8.85034 10.4892 8.85034 10.6568V37.2677C8.85034 37.4339 8.98528 37.5702 9.1529 37.5702H28.5933C28.6728 37.5702 28.7495 37.5376 28.8063 37.4807C28.8631 37.4239 28.8958 37.3472 28.8958 37.2677V34.5219H31.5137C31.5933 34.5219 31.6714 34.4907 31.7282 34.4339C31.785 34.377 31.8163 34.3003 31.8163 34.2194V7.60846C31.8163 7.44227 31.6813 7.30591 31.5137 7.30591ZM28.2907 36.9648H9.45396V10.959H28.2907V36.9648ZM31.2126 33.9165H28.8958V10.6565C28.8958 10.5756 28.8631 10.4989 28.8063 10.442C28.7495 10.3852 28.6728 10.354 28.5933 10.354H12.3744V7.91077H31.2111L31.2126 33.9165ZM12.1599 15.2845H25.586H25.5846C25.6656 15.2845 25.7423 15.2533 25.7991 15.1965C25.8559 15.1396 25.8872 15.0629 25.8872 14.982V12.4081C25.8872 12.3286 25.8559 12.2519 25.7991 12.195C25.7423 12.1382 25.6656 12.1056 25.5846 12.1056H12.1599C11.9923 12.1056 11.8573 12.2419 11.8573 12.4081V14.9834C11.8573 15.1496 11.9937 15.2845 12.1599 15.2845ZM12.4624 12.7107H25.282V14.6794H12.4624V12.7107Z" fill="black"/>
</svg>
