<svg width="41" height="51" viewBox="0 0 41 51" fill="none" xmlns="http://www.w3.org/2000/svg">
<g clip-path="url(#clip0_1_386)">
<path d="M5.21214 27.5778L4.71152 32.5834C4.69402 32.759 4.75152 32.9346 4.87027 33.0653C4.98839 33.1965 5.15652 33.2709 5.33339 33.2709H9.0834C9.26027 33.2709 9.42839 33.1965 9.54652 33.0653C9.66527 32.9346 9.72277 32.7596 9.70527 32.5834L9.20465 27.5771C9.12339 26.7653 8.56964 26.1171 7.83339 25.8765V24.4134C7.85527 24.4059 7.87464 24.394 7.8959 24.3853C7.92902 24.3721 7.96089 24.3571 7.99277 24.3421C8.06402 24.309 8.13214 24.2721 8.19839 24.2303C8.22839 24.2115 8.25777 24.194 8.28652 24.1734C8.36152 24.1203 8.43214 24.0621 8.49839 23.9984C8.51152 23.9859 8.52652 23.9753 8.53902 23.9628C8.61589 23.8853 8.68464 23.8003 8.74714 23.7103C8.76464 23.6853 8.77839 23.6584 8.79464 23.6321C8.83714 23.564 8.8759 23.494 8.90965 23.4203C8.92527 23.3859 8.93964 23.3515 8.95339 23.3159C8.98152 23.2428 9.00464 23.1678 9.0234 23.0903C9.03152 23.0559 9.04152 23.0228 9.0484 22.9878C9.06964 22.8784 9.0834 22.764 9.0834 22.6459C9.0834 22.5278 9.06964 22.4134 9.0484 22.3015C9.04214 22.2665 9.03215 22.2334 9.0234 22.199C9.00464 22.1221 8.98152 22.0465 8.95339 21.974C8.93964 21.9384 8.92589 21.904 8.90965 21.8696C8.8759 21.7959 8.83714 21.7259 8.79464 21.6578C8.77839 21.6321 8.76464 21.6046 8.74714 21.5796C8.68464 21.4896 8.61589 21.4053 8.53902 21.3271C8.52652 21.314 8.51152 21.304 8.49839 21.2915C8.43214 21.2284 8.36152 21.1696 8.28652 21.1165C8.25777 21.0965 8.22777 21.0784 8.19839 21.0596C8.13277 21.0184 8.06464 20.9815 7.99339 20.9484C7.96089 20.9334 7.92902 20.9184 7.8959 20.9053C7.87464 20.8965 7.85527 20.8853 7.83339 20.8778V11.6621L8.89152 12.0453L11.2128 12.8859L12.4878 16.7109C11.1303 18.7771 10.3334 21.244 10.3334 23.8959C10.3334 31.1328 16.2209 37.0209 23.4584 37.0209C30.6959 37.0209 36.5834 31.1328 36.5834 23.8959C36.5834 19.2178 34.1153 15.1146 30.4203 12.7896L30.0771 10.9228L33.7684 8.81338C33.9759 8.69526 34.0978 8.46838 34.0821 8.22963C34.0665 7.99088 33.9159 7.78213 33.6946 7.69213L19.9446 2.06713C19.7553 1.98963 19.5396 2.01026 19.3678 2.12151L6.86777 10.2465C6.86464 10.249 6.86214 10.2521 6.85902 10.2546C6.85589 10.2565 6.85277 10.2578 6.84964 10.2596C6.80777 10.289 6.77027 10.3228 6.73714 10.3603C6.73402 10.364 6.73214 10.3684 6.72902 10.3721C6.69777 10.4096 6.67089 10.4509 6.64902 10.4946C6.64089 10.5109 6.63652 10.5278 6.63027 10.544C6.61714 10.5771 6.60527 10.6109 6.59839 10.6465C6.59402 10.6671 6.59277 10.6884 6.59089 10.7096C6.58902 10.7303 6.58339 10.7503 6.58339 10.7709V20.8859C5.85777 21.1446 5.33339 21.8321 5.33339 22.6459C5.33339 23.4596 5.85777 24.1471 6.58339 24.4059V25.8771C5.84714 26.1178 5.29339 26.7653 5.21214 27.5778ZM8.39277 32.0209H6.02402L6.45589 27.7021C6.49464 27.314 6.81839 27.0209 7.20839 27.0209C7.59839 27.0209 7.92215 27.314 7.9609 27.7021L8.39277 32.0209ZM35.3334 23.8959C35.3334 30.444 30.0065 35.7709 23.4584 35.7709C16.9103 35.7709 11.5834 30.444 11.5834 23.8959C11.5834 21.0678 12.5809 18.4703 14.2371 16.4284C14.2865 16.3671 14.3378 16.3078 14.3884 16.2478C14.5978 16.0003 14.8134 15.7584 15.0421 15.529C15.0528 15.5184 15.0621 15.5071 15.0721 15.4971C15.3096 15.2603 15.5603 15.0365 15.8171 14.8203C15.8771 14.7696 15.9365 14.7196 15.9971 14.6703C16.2496 14.4659 16.509 14.2703 16.7771 14.0865C16.834 14.0478 16.8928 14.0121 16.9509 13.9746C17.1778 13.8253 17.4109 13.684 17.6484 13.5503C17.7278 13.5059 17.8059 13.459 17.8865 13.4159C18.1553 13.2728 18.4309 13.1409 18.7115 13.0178C18.8128 12.9734 18.9146 12.9321 19.0171 12.8909C19.2759 12.7859 19.5384 12.6884 19.8059 12.6015C19.8984 12.5715 19.9915 12.5434 20.0846 12.5159C20.3515 12.4365 20.6221 12.3671 20.8965 12.3065C20.9903 12.2859 21.0846 12.264 21.179 12.2453C21.4996 12.1828 21.8246 12.1321 22.1534 12.0959C22.2296 12.0871 22.3059 12.0815 22.3828 12.0746C22.7371 12.0434 23.0953 12.0209 23.4584 12.0209C23.8128 12.0209 24.1621 12.0434 24.509 12.074C24.6184 12.084 24.7278 12.0946 24.8371 12.1078C25.1021 12.1384 25.3634 12.1803 25.6228 12.2278C25.8128 12.2634 26.0015 12.3053 26.1896 12.3503C26.3678 12.3928 26.5453 12.4371 26.7203 12.4871C26.9046 12.5403 27.0871 12.5971 27.269 12.6596C27.3734 12.6953 27.4759 12.7353 27.5796 12.7734C27.9671 12.9178 28.3478 13.0809 28.7203 13.2659C28.764 13.2878 28.809 13.3071 28.8528 13.3296C29.0553 13.4334 29.254 13.5446 29.4509 13.6603C32.9634 15.7259 35.3334 19.5346 35.3334 23.8959ZM28.3228 11.7159C28.0853 11.6203 27.8446 11.5328 27.6021 11.4515C27.439 11.3971 27.2753 11.3459 27.1103 11.2978C26.8253 11.2146 26.5384 11.1396 26.2484 11.0759C26.1278 11.0496 26.0059 11.0278 25.884 11.0046C25.5434 10.9396 25.2003 10.8846 24.8553 10.8471C24.7965 10.8409 24.7371 10.8378 24.6784 10.8321C24.2734 10.794 23.8665 10.7709 23.4584 10.7709C23.0434 10.7709 22.6321 10.7946 22.2234 10.8334C22.1721 10.8384 22.1196 10.8409 22.0684 10.8465C21.699 10.8859 21.3334 10.944 20.9709 11.0146C20.8834 11.0315 20.7953 11.0478 20.7084 11.0659C20.3715 11.1384 20.039 11.2246 19.7109 11.3228C19.609 11.3534 19.5078 11.3846 19.4065 11.4178C19.0871 11.5215 18.7721 11.6359 18.4621 11.764C18.3703 11.8021 18.2803 11.8428 18.1896 11.8828C17.8715 12.0228 17.5578 12.1709 17.2515 12.3353C17.1984 12.364 17.1471 12.3959 17.0946 12.4253C16.7965 12.5909 16.5053 12.7684 16.2203 12.9571C16.1765 12.9859 16.1315 13.0128 16.0884 13.0421C15.7828 13.2503 15.4871 13.474 15.199 13.7078C15.1515 13.7465 15.104 13.784 15.0571 13.8234C14.774 14.0596 14.5003 14.3084 14.2365 14.5696C14.1965 14.6096 14.1571 14.6503 14.1171 14.6903C13.8678 14.9434 13.6246 15.204 13.3946 15.4784L12.3603 12.3753C12.3578 12.3315 12.3534 12.2871 12.3415 12.244C12.4128 12.1934 12.4834 12.1496 12.5546 12.1003C12.829 11.9096 13.1028 11.7215 13.3753 11.5478C13.4896 11.4753 13.6028 11.4121 13.7165 11.3421C13.9465 11.2009 14.1771 11.0571 14.4059 10.9278C14.5521 10.8453 14.6965 10.7746 14.8421 10.6965C15.0378 10.5921 15.234 10.4821 15.429 10.3865C15.5946 10.3053 15.7584 10.2371 15.9228 10.1621C16.0959 10.0834 16.2703 9.99776 16.4428 9.92588C16.6271 9.84901 16.809 9.78651 16.9928 9.71776C17.1446 9.66088 17.2971 9.59713 17.4478 9.54588C17.6496 9.47713 17.849 9.42338 18.049 9.36463C18.1796 9.32651 18.3115 9.28026 18.4415 9.24651C18.6971 9.17963 18.9509 9.12776 19.204 9.07713C19.2771 9.06276 19.3509 9.04151 19.424 9.02838C19.7496 8.96963 20.0734 8.92401 20.3946 8.89213C23.1984 8.61588 25.1534 8.69838 26.4778 8.88713C26.4921 8.88901 26.5053 8.89151 26.5196 8.89401C26.6503 8.91276 26.7759 8.93276 26.894 8.95338C26.939 8.96151 26.9778 8.96963 27.0209 8.97776C27.104 8.99338 27.189 9.00901 27.2659 9.02526C27.3321 9.03901 27.3909 9.05401 27.4528 9.06776C27.4996 9.07838 27.5503 9.08901 27.5946 9.10026C27.674 9.12026 27.7465 9.14026 27.8178 9.16026C27.8384 9.16588 27.8628 9.17213 27.8828 9.17776C27.9496 9.19713 28.0096 9.21588 28.069 9.23526C28.0896 9.24213 28.1134 9.24838 28.1334 9.25526C28.1896 9.27401 28.2396 9.29213 28.2896 9.31026C28.3078 9.31651 28.3284 9.32338 28.3459 9.33026C28.3859 9.34526 28.4196 9.35901 28.4553 9.37338C28.4765 9.38213 28.5009 9.39088 28.5203 9.39963L28.7403 10.7171C28.7509 10.7796 28.7728 10.8378 28.8009 10.8928L29.0071 12.0128C28.9684 11.9946 28.9284 11.979 28.8896 11.9615C28.7021 11.8759 28.5146 11.7928 28.3228 11.7159ZM19.7746 3.34838L32.0359 8.36401L29.8378 9.62026L29.6984 8.86151C29.6878 8.80213 29.6553 8.75213 29.6284 8.69963C29.6134 8.66963 29.6084 8.63526 29.589 8.60838C29.534 8.53276 29.4628 8.46901 29.3784 8.42338C27.804 7.58088 24.789 7.28088 21.0334 7.58088C20.7828 7.60088 20.529 7.62338 20.2728 7.64901C17.3596 7.93651 14.3115 9.23838 11.2134 11.5171C11.2015 11.5259 11.1909 11.5346 11.1796 11.544L9.92152 11.0884L9.63027 10.9828L8.60214 10.6103L19.7746 3.34838ZM7.20839 22.0209C7.55277 22.0209 7.83339 22.3009 7.83339 22.6459C7.83339 22.9909 7.55277 23.2709 7.20839 23.2709C6.86402 23.2709 6.58339 22.9909 6.58339 22.6459C6.58339 22.3009 6.86402 22.0209 7.20839 22.0209Z" fill="black"/>
<path d="M23.4584 18.2709C25.1815 18.2709 26.5834 19.6727 26.5834 21.3959H27.8334C27.8334 19.1965 26.2002 17.3759 24.0834 17.0709V15.7709H22.8334V17.0709C20.7165 17.3759 19.0834 19.1965 19.0834 21.3959C19.0834 21.6046 19.1877 21.7996 19.3615 21.9159L26.5665 26.7196C26.4046 28.2909 25.0727 29.5209 23.4584 29.5209C21.7352 29.5209 20.3334 28.119 20.3334 26.3959H19.0834C19.0834 28.5952 20.7165 30.4159 22.8334 30.7209V32.0209H24.0834V30.7209C26.2002 30.4159 27.8334 28.5952 27.8334 26.3959C27.8334 26.1871 27.729 25.9921 27.5552 25.8759L20.3502 21.0721C20.5121 19.5009 21.844 18.2709 23.4584 18.2709Z" fill="black"/>
<path d="M23.4584 13.2709C17.5996 13.2709 12.8334 18.0371 12.8334 23.8959C12.8334 29.7546 17.5996 34.5209 23.4584 34.5209C29.3171 34.5209 34.0834 29.7546 34.0834 23.8959C34.0834 18.0371 29.3171 13.2709 23.4584 13.2709ZM23.4584 33.2709C18.289 33.2709 14.0834 29.0652 14.0834 23.8959C14.0834 18.7265 18.289 14.5209 23.4584 14.5209C28.6277 14.5209 32.8334 18.7265 32.8334 23.8959C32.8334 29.0652 28.6277 33.2709 23.4584 33.2709Z" fill="black"/>
</g>
<defs>
<clipPath id="clip0_1_386">
<rect width="40" height="50" fill="white" transform="translate(0.333374 0.770874)"/>
</clipPath>
</defs>
</svg>
