<svg width="64" height="64" viewBox="0 0 64 64" fill="none" xmlns="http://www.w3.org/2000/svg">
<path d="M54 10H10C8.93913 10 7.92172 10.4214 7.17157 11.1716C6.42143 11.9217 6 12.9391 6 14V50C6 51.0609 6.42143 52.0783 7.17157 52.8284C7.92172 53.5786 8.93913 54 10 54H13.3475C13.726 54.0001 14.0968 53.8928 14.4168 53.6906C14.7367 53.4883 14.9927 53.1995 15.155 52.8575C16.1275 50.8042 17.663 49.0692 19.5829 47.8542C21.5027 46.6392 23.728 45.9942 26 45.9942C28.272 45.9942 30.4973 46.6392 32.4171 47.8542C34.337 49.0692 35.8725 50.8042 36.845 52.8575C37.0073 53.1995 37.2633 53.4883 37.5832 53.6906C37.9032 53.8928 38.274 54.0001 38.6525 54H54C55.0609 54 56.0783 53.5786 56.8284 52.8284C57.5786 52.0783 58 51.0609 58 50V14C58 12.9391 57.5786 11.9217 56.8284 11.1716C56.0783 10.4214 55.0609 10 54 10ZM20 36C20 34.8133 20.3519 33.6533 21.0112 32.6666C21.6705 31.6799 22.6075 30.9108 23.7039 30.4567C24.8003 30.0026 26.0067 29.8838 27.1705 30.1153C28.3344 30.3468 29.4035 30.9182 30.2426 31.7574C31.0818 32.5965 31.6532 33.6656 31.8847 34.8295C32.1162 35.9933 31.9974 37.1997 31.5433 38.2961C31.0892 39.3925 30.3201 40.3295 29.3334 40.9888C28.3467 41.6481 27.1867 42 26 42C24.4087 42 22.8826 41.3679 21.7574 40.2426C20.6321 39.1174 20 37.5913 20 36ZM54 50H39.8575C38.1873 47.1286 35.6697 44.8441 32.65 43.46C34.164 42.1119 35.2325 40.3356 35.7139 38.3664C36.1953 36.3973 36.0669 34.3283 35.3457 32.4338C34.6245 30.5393 33.3445 28.9087 31.6755 27.7582C30.0064 26.6077 28.0272 25.9916 26 25.9916C23.9728 25.9916 21.9936 26.6077 20.3245 27.7582C18.6555 28.9087 17.3755 30.5393 16.6543 32.4338C15.9331 34.3283 15.8047 36.3973 16.2861 38.3664C16.7675 40.3356 17.836 42.1119 19.35 43.46C16.3303 44.8441 13.8127 47.1286 12.1425 50H10V14H54V50ZM14 24V20C14 19.4696 14.2107 18.9609 14.5858 18.5858C14.9609 18.2107 15.4696 18 16 18H48C48.5304 18 49.0391 18.2107 49.4142 18.5858C49.7893 18.9609 50 19.4696 50 20V44C50 44.5304 49.7893 45.0391 49.4142 45.4142C49.0391 45.7893 48.5304 46 48 46H44C43.4696 46 42.9609 45.7893 42.5858 45.4142C42.2107 45.0391 42 44.5304 42 44C42 43.4696 42.2107 42.9609 42.5858 42.5858C42.9609 42.2107 43.4696 42 44 42H46V22H18V24C18 24.5304 17.7893 25.0391 17.4142 25.4142C17.0391 25.7893 16.5304 26 16 26C15.4696 26 14.9609 25.7893 14.5858 25.4142C14.2107 25.0391 14 24.5304 14 24Z" fill="black"/>
</svg>
