<svg width="56" height="50" viewBox="0 0 56 50" fill="none" xmlns="http://www.w3.org/2000/svg">
<path d="M52 0.370117H36C34.4475 0.370117 32.9164 0.740709 31.5279 1.45254C30.1393 2.16438 28.9315 3.1979 28 4.47127C27.0685 3.1979 25.8607 2.16438 24.4721 1.45254C23.0836 0.740709 21.5525 0.370117 20 0.370117H4C2.93913 0.370117 1.92172 0.802202 1.17157 1.57132C0.421427 2.34043 0 3.38358 0 4.47127V37.2805C0 38.3682 0.421427 39.4114 1.17157 40.1805C1.92172 40.9496 2.93913 41.3817 4 41.3817H20C21.5913 41.3817 23.1174 42.0298 24.2426 43.1835C25.3679 44.3371 26 45.9019 26 47.5334C26 48.0772 26.2107 48.5988 26.5858 48.9834C26.9609 49.3679 27.4696 49.584 28 49.584C28.5304 49.584 29.0391 49.3679 29.4142 48.9834C29.7893 48.5988 30 48.0772 30 47.5334C30 45.9019 30.6321 44.3371 31.7574 43.1835C32.8826 42.0298 34.4087 41.3817 36 41.3817H52C53.0609 41.3817 54.0783 40.9496 54.8284 40.1805C55.5786 39.4114 56 38.3682 56 37.2805V4.47127C56 3.38358 55.5786 2.34043 54.8284 1.57132C54.0783 0.802202 53.0609 0.370117 52 0.370117ZM20 37.2805H4V4.47127H20C21.5913 4.47127 23.1174 5.1194 24.2426 6.27307C25.3679 7.42675 26 8.99146 26 10.623V39.3311C24.2707 37.9969 22.1643 37.277 20 37.2805ZM52 37.2805H36C33.8357 37.277 31.7293 37.9969 30 39.3311V10.623C30 8.99146 30.6321 7.42675 31.7574 6.27307C32.8826 5.1194 34.4087 4.47127 36 4.47127H52V37.2805ZM36 10.623H46C46.5304 10.623 47.0391 10.839 47.4142 11.2236C47.7893 11.6082 48 12.1297 48 12.6736C48 13.2174 47.7893 13.739 47.4142 14.1236C47.0391 14.5081 46.5304 14.7242 46 14.7242H36C35.4696 14.7242 34.9609 14.5081 34.5858 14.1236C34.2107 13.739 34 13.2174 34 12.6736C34 12.1297 34.2107 11.6082 34.5858 11.2236C34.9609 10.839 35.4696 10.623 36 10.623ZM48 20.8759C48 21.4197 47.7893 21.9413 47.4142 22.3259C47.0391 22.7104 46.5304 22.9265 46 22.9265H36C35.4696 22.9265 34.9609 22.7104 34.5858 22.3259C34.2107 21.9413 34 21.4197 34 20.8759C34 20.332 34.2107 19.8105 34.5858 19.4259C34.9609 19.0414 35.4696 18.8253 36 18.8253H46C46.5304 18.8253 47.0391 19.0414 47.4142 19.4259C47.7893 19.8105 48 20.332 48 20.8759ZM48 29.0782C48 29.6221 47.7893 30.1436 47.4142 30.5282C47.0391 30.9127 46.5304 31.1288 46 31.1288H36C35.4696 31.1288 34.9609 30.9127 34.5858 30.5282C34.2107 30.1436 34 29.6221 34 29.0782C34 28.5344 34.2107 28.0128 34.5858 27.6282C34.9609 27.2437 35.4696 27.0276 36 27.0276H46C46.5304 27.0276 47.0391 27.2437 47.4142 27.6282C47.7893 28.0128 48 28.5344 48 29.0782Z" fill="black"/>
</svg>
