<svg width="64" height="64" viewBox="0 0 64 64" fill="none" xmlns="http://www.w3.org/2000/svg">
<path d="M20 22V14C20 13.4696 20.2107 12.9609 20.5858 12.5858C20.9609 12.2107 21.4696 12 22 12C22.5304 12 23.0391 12.2107 23.4142 12.5858C23.7893 12.9609 24 13.4696 24 14V22C24 22.5304 23.7893 23.0391 23.4142 23.4142C23.0391 23.7893 22.5304 24 22 24C21.4696 24 20.9609 23.7893 20.5858 23.4142C20.2107 23.0391 20 22.5304 20 22ZM30 24C30.5304 24 31.0391 23.7893 31.4142 23.4142C31.7893 23.0391 32 22.5304 32 22V14C32 13.4696 31.7893 12.9609 31.4142 12.5858C31.0391 12.2107 30.5304 12 30 12C29.4696 12 28.9609 12.2107 28.5858 12.5858C28.2107 12.9609 28 13.4696 28 14V22C28 22.5304 28.2107 23.0391 28.5858 23.4142C28.9609 23.7893 29.4696 24 30 24ZM38 24C38.5304 24 39.0391 23.7893 39.4142 23.4142C39.7893 23.0391 40 22.5304 40 22V14C40 13.4696 39.7893 12.9609 39.4142 12.5858C39.0391 12.2107 38.5304 12 38 12C37.4696 12 36.9609 12.2107 36.5858 12.5858C36.2107 12.9609 36 13.4696 36 14V22C36 22.5304 36.2107 23.0391 36.5858 23.4142C36.9609 23.7893 37.4696 24 38 24ZM62 38V40C61.9992 42.5439 61.029 44.9918 59.2868 46.8455C57.5446 48.6991 55.1614 49.8191 52.6225 49.9775C51.2583 53.8364 48.9355 57.2852 45.8725 60H52C52.5304 60 53.0391 60.2107 53.4142 60.5858C53.7893 60.9609 54 61.4696 54 62C54 62.5304 53.7893 63.0391 53.4142 63.4142C53.0391 63.7893 52.5304 64 52 64H8C7.46957 64 6.96086 63.7893 6.58579 63.4142C6.21071 63.0391 6 62.5304 6 62C6 61.4696 6.21071 60.9609 6.58579 60.5858C6.96086 60.2107 7.46957 60 8 60H14.135C11.5833 57.7456 9.53874 54.9755 8.13645 51.8727C6.73415 48.7699 6.00598 45.405 6 42V30C6 29.4696 6.21071 28.9609 6.58579 28.5858C6.96086 28.2107 7.46957 28 8 28H52C54.6522 28 57.1957 29.0536 59.0711 30.9289C60.9464 32.8043 62 35.3478 62 38ZM50 32H10V42C10.0077 45.7552 11.0689 49.4329 13.063 52.6149C15.0571 55.7969 17.904 58.3556 21.28 60H38.72C42.096 58.3556 44.9429 55.7969 46.937 52.6149C48.9311 49.4329 49.9923 45.7552 50 42V32ZM58 38C57.9996 36.7595 57.6148 35.5497 56.8984 34.537C56.1821 33.5243 55.1695 32.7585 54 32.345V42C53.9985 43.2559 53.8982 44.5098 53.7 45.75C54.9409 45.3834 56.0301 44.6254 56.805 43.5892C57.5799 42.5529 57.9991 41.2939 58 40V38Z" fill="black"/>
</svg>
