<svg width="64" height="64" viewBox="0 0 64 64" fill="none" xmlns="http://www.w3.org/2000/svg">
<path d="M55.4226 49.9425L40.0001 24.23V10H42.0001C42.5305 10 43.0392 9.78929 43.4143 9.41421C43.7893 9.03914 44.0001 8.53043 44.0001 8C44.0001 7.46957 43.7893 6.96086 43.4143 6.58579C43.0392 6.21071 42.5305 6 42.0001 6H22.0001C21.4696 6 20.9609 6.21071 20.5858 6.58579C20.2108 6.96086 20.0001 7.46957 20.0001 8C20.0001 8.53043 20.2108 9.03914 20.5858 9.41421C20.9609 9.78929 21.4696 10 22.0001 10H24.0001V24.23L8.57756 49.9425C8.21382 50.5489 8.01734 51.2409 8.00815 51.948C7.99896 52.6551 8.17738 53.352 8.52524 53.9677C8.8731 54.5833 9.37795 55.0958 9.98836 55.4528C10.5988 55.8098 11.2929 55.9986 12.0001 56H52.0001C52.7078 56 53.4029 55.8121 54.0144 55.4556C54.6259 55.0992 55.1318 54.5868 55.4805 53.9709C55.8293 53.355 56.0083 52.6576 55.9995 51.9499C55.9906 51.2422 55.7941 50.5495 55.4301 49.9425H55.4226ZM27.7151 25.8125C27.9021 25.5025 28.0007 25.1471 28.0001 24.785V10H36.0001V24.785C35.9994 25.1471 36.098 25.5025 36.2851 25.8125L45.8401 41.75C42.8401 42.3425 38.5726 42.0925 32.9026 39.2225C28.9251 37.21 25.1401 36.1425 21.5976 36.02L27.7151 25.8125ZM12.0001 52L19.1351 40.105C22.6976 39.67 26.7126 40.5675 31.0901 42.785C35.8401 45.1875 39.8401 46.005 43.0901 46.005C44.743 46.0123 46.3885 45.785 47.9776 45.33L52.0001 52H12.0001Z" fill="black"/>
</svg>
