<svg width="64" height="64" viewBox="0 0 64 64" fill="none" xmlns="http://www.w3.org/2000/svg">
<path d="M53 36C53 36.5933 52.8241 37.1734 52.4944 37.6667C52.1648 38.1601 51.6962 38.5446 51.148 38.7716C50.5999 38.9987 49.9967 39.0581 49.4147 38.9424C48.8328 38.8266 48.2982 38.5409 47.8787 38.1213C47.4591 37.7018 47.1734 37.1672 47.0576 36.5853C46.9419 36.0033 47.0013 35.4001 47.2284 34.852C47.4554 34.3038 47.8399 33.8352 48.3333 33.5056C48.8266 33.1759 49.4067 33 50 33C50.7956 33 51.5587 33.3161 52.1213 33.8787C52.6839 34.4413 53 35.2044 53 36ZM51.8625 45.8225C51.4232 48.6546 49.9864 51.2365 47.8113 53.1026C45.6362 54.9688 42.8659 55.9963 40 56H34C30.8184 55.9967 27.7681 54.7313 25.5184 52.4816C23.2687 50.2319 22.0033 47.1816 22 44V33.8725C18.1338 33.3854 14.5783 31.5041 12.0007 28.5818C9.42303 25.6594 8.00049 21.8967 8 18V8C8 6.93913 8.42143 5.92172 9.17157 5.17157C9.92172 4.42143 10.9391 4 12 4H16C16.5304 4 17.0391 4.21071 17.4142 4.58579C17.7893 4.96086 18 5.46957 18 6C18 6.53043 17.7893 7.03914 17.4142 7.41421C17.0391 7.78929 16.5304 8 16 8H12V18C11.9999 19.5894 12.3155 21.163 12.9285 22.6295C13.5415 24.0959 14.4398 25.4259 15.5711 26.5424C16.7024 27.6588 18.0442 28.5393 19.5186 29.1329C20.9931 29.7265 22.5707 30.0212 24.16 30C30.6875 29.915 36 24.4375 36 17.7925V8H32C31.4696 8 30.9609 7.78929 30.5858 7.41421C30.2107 7.03914 30 6.53043 30 6C30 5.46957 30.2107 4.96086 30.5858 4.58579C30.9609 4.21071 31.4696 4 32 4H36C37.0609 4 38.0783 4.42143 38.8284 5.17157C39.5786 5.92172 40 6.93913 40 8V17.7925C40 26.0025 33.8675 32.865 26 33.87V44C26 46.1217 26.8429 48.1566 28.3431 49.6569C29.8434 51.1571 31.8783 52 34 52H40C41.8167 51.997 43.5785 51.3769 44.9966 50.2413C46.4147 49.1058 47.4049 47.5221 47.805 45.75C45.3896 45.2074 43.2613 43.7882 41.8319 41.767C40.4025 39.7457 39.7737 37.2661 40.0671 34.808C40.3605 32.3498 41.5553 30.0879 43.4202 28.4598C45.2852 26.8317 47.6877 25.9533 50.163 25.9945C52.6382 26.0357 55.0102 26.9935 56.82 28.6827C58.6297 30.3719 59.7486 32.6723 59.9601 35.1389C60.1715 37.6054 59.4606 40.0628 57.9648 42.0354C56.469 44.0079 54.2946 45.3556 51.8625 45.8175V45.8225ZM56 36C56 34.8133 55.6481 33.6533 54.9888 32.6666C54.3295 31.6799 53.3925 30.9108 52.2961 30.4567C51.1997 30.0026 49.9933 29.8838 48.8295 30.1153C47.6656 30.3468 46.5965 30.9182 45.7574 31.7574C44.9182 32.5965 44.3468 33.6656 44.1153 34.8295C43.8838 35.9933 44.0026 37.1997 44.4567 38.2961C44.9108 39.3925 45.6799 40.3295 46.6666 40.9888C47.6533 41.6481 48.8133 42 50 42C51.5913 42 53.1174 41.3679 54.2426 40.2426C55.3679 39.1174 56 37.5913 56 36Z" fill="black"/>
</svg>
