<svg width="64" height="64" viewBox="0 0 64 64" fill="none" xmlns="http://www.w3.org/2000/svg">
<path d="M57.9125 48.6376L49.615 9.18757C49.5077 8.67168 49.2995 8.18207 49.0024 7.74687C48.7053 7.31168 48.3251 6.93948 47.8837 6.65165C47.4424 6.36382 46.9485 6.16604 46.4304 6.06967C45.9123 5.97329 45.3804 5.98023 44.865 6.09007L33.1625 8.60507C32.1274 8.83172 31.2236 9.45791 30.6478 10.3474C30.0719 11.237 29.8706 12.3179 30.0875 13.3551L38.385 52.8051C38.5699 53.7051 39.0591 54.5141 39.7702 55.0959C40.4814 55.6778 41.3712 55.997 42.29 56.0001C42.574 55.9997 42.8573 55.9695 43.135 55.9101L54.8375 53.3951C55.8739 53.1679 56.7785 52.5405 57.3545 51.6494C57.9304 50.7583 58.131 49.6758 57.9125 48.6376ZM34 12.5376C34 12.5226 34 12.5151 34 12.5151L45.7 10.0151L46.5325 13.9826L34.8325 16.5001L34 12.5376ZM35.655 20.4051L47.36 17.8926L48.195 21.8676L36.5 24.3826L35.655 20.4051ZM37.315 28.2976L49.02 25.7826L52.345 41.5926L40.64 44.1076L37.315 28.2976ZM54 49.4851L42.3 51.9851L41.4675 48.0176L53.1675 45.5001L54 49.4626C54 49.4776 54 49.4851 54 49.4851ZM26 8.00007H14C12.9391 8.00007 11.9217 8.4215 11.1716 9.17164C10.4214 9.92179 10 10.9392 10 12.0001V52.0001C10 53.0609 10.4214 54.0784 11.1716 54.8285C11.9217 55.5786 12.9391 56.0001 14 56.0001H26C27.0609 56.0001 28.0783 55.5786 28.8284 54.8285C29.5786 54.0784 30 53.0609 30 52.0001V12.0001C30 10.9392 29.5786 9.92179 28.8284 9.17164C28.0783 8.4215 27.0609 8.00007 26 8.00007ZM14 12.0001H26V16.0001H14V12.0001ZM14 20.0001H26V44.0001H14V20.0001ZM26 52.0001H14V48.0001H26V52.0001Z" fill="black"/>
</svg>
