<svg width="64" height="64" viewBox="0 0 64 64" fill="none" xmlns="http://www.w3.org/2000/svg">
<path d="M46 7H18C15.8783 7 13.8434 7.84285 12.3431 9.34315C10.8429 10.8434 10 12.8783 10 15V51C10 52.0609 10.4214 53.0783 11.1716 53.8284C11.9217 54.5786 12.9391 55 14 55H20C21.0609 55 22.0783 54.5786 22.8284 53.8284C23.5786 53.0783 24 52.0609 24 51V47H40V51C40 52.0609 40.4214 53.0783 41.1716 53.8284C41.9217 54.5786 42.9391 55 44 55H50C51.0609 55 52.0783 54.5786 52.8284 53.8284C53.5786 53.0783 54 52.0609 54 51V15C54 12.8783 53.1571 10.8434 51.6569 9.34315C50.1566 7.84285 48.1217 7 46 7ZM14 43V29H50V43H14ZM14 19H50V25H14V19ZM18 11H46C47.0609 11 48.0783 11.4214 48.8284 12.1716C49.5786 12.9217 50 13.9391 50 15H14C14 13.9391 14.4214 12.9217 15.1716 12.1716C15.9217 11.4214 16.9391 11 18 11ZM20 51H14V47H20V51ZM44 51V47H50V51H44ZM26 36C26 36.5933 25.8241 37.1734 25.4944 37.6667C25.1648 38.1601 24.6962 38.5446 24.1481 38.7716C23.5999 38.9987 22.9967 39.0581 22.4147 38.9424C21.8328 38.8266 21.2982 38.5409 20.8787 38.1213C20.4591 37.7018 20.1734 37.1672 20.0576 36.5853C19.9419 36.0033 20.0013 35.4001 20.2284 34.852C20.4554 34.3038 20.8399 33.8352 21.3333 33.5056C21.8266 33.1759 22.4067 33 23 33C23.7956 33 24.5587 33.3161 25.1213 33.8787C25.6839 34.4413 26 35.2044 26 36ZM44 36C44 36.5933 43.8241 37.1734 43.4944 37.6667C43.1648 38.1601 42.6962 38.5446 42.148 38.7716C41.5999 38.9987 40.9967 39.0581 40.4147 38.9424C39.8328 38.8266 39.2982 38.5409 38.8787 38.1213C38.4591 37.7018 38.1734 37.1672 38.0576 36.5853C37.9419 36.0033 38.0013 35.4001 38.2284 34.852C38.4554 34.3038 38.8399 33.8352 39.3333 33.5056C39.8266 33.1759 40.4067 33 41 33C41.7956 33 42.5587 33.3161 43.1213 33.8787C43.6839 34.4413 44 35.2044 44 36ZM62 19V25C62 25.5304 61.7893 26.0391 61.4142 26.4142C61.0391 26.7893 60.5304 27 60 27C59.4696 27 58.9609 26.7893 58.5858 26.4142C58.2107 26.0391 58 25.5304 58 25V19C58 18.4696 58.2107 17.9609 58.5858 17.5858C58.9609 17.2107 59.4696 17 60 17C60.5304 17 61.0391 17.2107 61.4142 17.5858C61.7893 17.9609 62 18.4696 62 19ZM6 19V25C6 25.5304 5.78929 26.0391 5.41421 26.4142C5.03914 26.7893 4.53043 27 4 27C3.46957 27 2.96086 26.7893 2.58579 26.4142C2.21071 26.0391 2 25.5304 2 25V19C2 18.4696 2.21071 17.9609 2.58579 17.5858C2.96086 17.2107 3.46957 17 4 17C4.53043 17 5.03914 17.2107 5.41421 17.5858C5.78929 17.9609 6 18.4696 6 19Z" fill="black"/>
</svg>
